<svg width="282" height="40" viewBox="0 0 282 40" fill="none" xmlns="http://www.w3.org/2000/svg">
<g clip-path="url(#clip0_201_41)">
<path d="M60.8021 25.9975C59.1643 25.6248 57.8059 24.992 56.7305 24.0991C55.7152 23.2553 54.891 22.1233 54.2578 20.6995H52.5563V23.8178C53.5538 23.6807 54.6186 23.5225 55.7541 23.3468L55.8284 24.8901C54.0137 25.1854 51.8488 25.5194 49.3301 25.892L48.9304 24.2889C49.0966 24.2678 49.3655 24.2362 49.7298 24.187C50.1649 24.1378 50.4975 24.0991 50.7345 24.0674V20.6995H48.2936V19.1562H50.7522V12.7438H60.0911V14.1712H52.5563V14.9516H59.6737V16.3051H52.5563V17.0398H59.6737V18.3933H52.5563V19.1562H61.6299V20.6995H60.0451L61.1842 21.4941C60.3953 22.0636 59.4862 22.6155 58.4603 23.1569C59.426 23.7546 60.5757 24.1764 61.9093 24.4225C61.4672 24.883 61.0957 25.4069 60.7986 25.9975H60.8021ZM57.2646 22.2323C58.0747 21.7612 58.8282 21.2515 59.5286 20.7031H56.0937C56.4086 21.262 56.7977 21.7718 57.2611 22.2323H57.2646Z" fill="#585757"/>
<path d="M65.981 26.0291C65.5777 25.646 65.1072 25.2979 64.5766 24.985C64.9622 24.7003 65.3301 24.3417 65.6874 23.9128C66.0411 23.4804 66.3241 23.0444 66.5293 22.605L68.1707 23.0901C67.9124 23.621 67.5835 24.1554 67.1802 24.6932C66.784 25.2241 66.3842 25.6706 65.981 26.0327V26.0291ZM64.6933 22.4995V20.9703H66.0234V15.5141H64.8702V13.9849H66.0234V12.424H67.6082V13.9849H69.4442V12.424H71.0573V13.9849H72.0619V15.5141H71.0573V20.9703H71.9593V22.4995H64.6933ZM67.6082 16.3649H69.4442V15.5106H67.6082V16.3649ZM67.6082 18.6289H69.4442V17.7043H67.6082V18.6289ZM67.6082 20.9667H69.4442V19.9648H67.6082V20.9667ZM72.7588 26.0116C72.6102 25.8534 72.3873 25.667 72.0937 25.4526C71.7966 25.2381 71.556 25.094 71.3686 25.0272C71.3898 24.9991 71.4145 24.9569 71.4499 24.9007C71.4853 24.8479 71.5065 24.8057 71.5171 24.7776L70.2896 25.4702C69.9748 24.8514 69.4477 24.1132 68.7048 23.2483L70.0349 22.5277C70.8061 23.3714 71.3367 24.0393 71.6339 24.528C72.0194 23.7124 72.2812 22.6859 72.4192 21.4378C72.5182 20.6046 72.5678 19.5535 72.5678 18.2914V12.8915H78.0438V24.0393C78.0438 24.4788 77.9942 24.8233 77.8952 25.0694C77.7961 25.3155 77.6193 25.5053 77.361 25.6424C76.9472 25.8674 76.1583 25.9694 74.9945 25.9518C74.9166 25.3542 74.7468 24.7987 74.4921 24.2889C74.8459 24.3171 75.3199 24.3276 75.9142 24.3171H76.0486C76.2467 24.3171 76.3458 24.2151 76.3458 24.0077V21.1109H74.0959C73.8978 23.2378 73.4557 24.8725 72.7623 26.0081L72.7588 26.0116ZM74.195 19.5535H76.3422V17.743H74.2091V18.2879C74.2091 18.8258 74.2056 19.2476 74.195 19.5535ZM74.2091 16.1997H76.3422V14.477H74.2091V16.1997Z" fill="#585757"/>
<path d="M83.0741 26.0432L81.3726 25.3226C82.1119 24.4507 82.7203 23.4382 83.1944 22.2921L84.8959 22.7632C84.3228 24.0675 83.7179 25.1608 83.0741 26.0432ZM82.0376 22.1621V12.8072H86.7424V16.4387C87.5313 16.2243 88.1291 15.929 88.5324 15.5563C88.8791 15.2435 89.1232 14.8216 89.2717 14.2907H87.1705V12.7615H94.7937C94.7831 12.9583 94.7725 13.1552 94.7654 13.3486C94.7053 14.3892 94.6381 15.1415 94.5567 15.6126C94.4683 16.1223 94.3409 16.4669 94.1711 16.6426C93.9341 16.9063 93.5945 17.0645 93.1488 17.1137C92.7243 17.1629 92.1583 17.1735 91.4473 17.1419C91.4084 16.611 91.2633 16.147 91.0192 15.7427C91.5216 15.7813 91.9496 15.8024 92.3069 15.8024C92.505 15.8024 92.6536 15.7532 92.7491 15.6548C92.8764 15.5282 92.9755 15.0712 93.0462 14.2872H91.0051C90.8353 15.1099 90.5452 15.7673 90.1313 16.2595C89.6467 16.829 88.9357 17.2754 88.0018 17.5989H94.3374V21.9828H87.6162V17.7184L87.5879 17.7325C87.411 17.2825 87.128 16.8747 86.746 16.5126V21.4695H83.6967V22.1621H82.0376ZM83.6967 16.2489H85.1329V14.3364H83.6967V16.2489ZM83.6967 19.9121H85.1329V17.7782H83.6967V19.9121ZM85.9324 25.9272C85.9324 25.0448 85.8369 24.0183 85.6529 22.8511L87.2801 22.6613C87.5172 23.8566 87.6445 24.8585 87.6657 25.6636L85.9359 25.9272H85.9324ZM89.5441 25.8675C89.4451 25.0448 89.1904 24.0288 88.773 22.823L90.432 22.5277C90.8671 23.6175 91.1572 24.6124 91.3058 25.5124L89.5441 25.8639V25.8675ZM89.2788 20.573H92.5934V18.9981H89.2788V20.573ZM93.4389 25.987C93.1347 25.1433 92.597 24.0851 91.8258 22.8089L93.4247 22.1902C94.2737 23.505 94.8468 24.528 95.1404 25.2628L93.4389 25.9835V25.987Z" fill="#585757"/>
<path d="M105.912 26.015C105.696 25.7584 105.403 25.4807 105.038 25.1748H101.724V25.8358H100.45V22.0108L100.376 22.0987C100.376 22.0987 100.348 22.0636 100.316 22.0249C100.178 21.8667 100.065 21.7401 99.9761 21.6417C99.7886 23.3467 99.4773 24.7494 99.0422 25.8498C98.9255 25.6916 98.738 25.5194 98.4868 25.3295C98.2357 25.1397 98.0163 25.0096 97.8289 24.9393C98.1932 23.9585 98.4409 22.7175 98.5682 21.2163C98.6566 20.246 98.7026 19.0296 98.7026 17.5672V13.0075L99.4419 13.2149C101.345 13.0497 102.841 12.8036 103.927 12.4802L105.095 13.6262C103.832 13.9883 102.191 14.2485 100.167 14.4067V14.9059H105.127V18.3054H103.216L104.43 18.6289C104.391 18.7062 104.327 18.8293 104.239 18.998C104.122 19.1949 104.037 19.3425 103.988 19.4374H105.201V20.5273H103.811V21.0265H105.07V21.9968H103.811V22.51H105.084V23.5085H103.811V24.0217H105.321V24.6827C106.061 24.2327 106.648 23.7229 107.083 23.1534L108.473 23.976C108.148 24.3487 107.748 24.7248 107.274 25.101C106.8 25.4772 106.347 25.7795 105.912 26.0045V26.015ZM100.082 20.3796C100.486 19.7328 100.793 19.0402 100.998 18.3054H100.171V18.3793C100.149 19.2406 100.121 19.9085 100.082 20.3796ZM100.171 17.0117H103.56V16.2031H100.171V17.0117ZM101.918 19.4374H102.746C102.933 18.8996 103.05 18.5199 103.1 18.3054H101.25L102.226 18.555C102.138 18.8503 102.035 19.1421 101.915 19.4374H101.918ZM101.727 21.0265H102.658V20.5273H101.727V21.0265ZM101.727 22.5136H102.658V22.0003H101.727V22.5136ZM101.727 24.0288H102.658V23.5155H101.727V24.0288ZM105.813 23.0303V15.2328H107.589C107.617 15.0254 107.652 14.7196 107.691 14.3047H105.516V12.8352H111.629V14.3047H109.439C109.35 14.6282 109.262 14.9375 109.174 15.2328H111.395V23.0303H105.816H105.813ZM107.249 17.4547H109.899V16.5582H107.249V17.4547ZM107.249 19.5886H109.899V18.6781H107.249V19.5886ZM107.249 21.7226H109.899V20.8261H107.249V21.7226ZM110.684 26.001C110.32 25.4701 109.711 24.8057 108.862 24.0006L110.104 23.2202C110.964 23.9549 111.593 24.5877 112 25.1186L110.684 26.001Z" fill="#585757"/>
<path d="M50.2852 33.3345V33.8091H48.2936V30.29H48.8348V33.3345H50.2852Z" fill="#585757"/>
<path d="M52.3016 30.2233C53.3204 30.2233 53.9324 30.944 53.9324 32.0338C53.9324 33.1236 53.3062 33.8513 52.3087 33.8513C51.3111 33.8513 50.6779 33.1306 50.6779 32.0338C50.6779 30.9369 51.3076 30.2233 52.3016 30.2233ZM52.3051 33.3521C52.9737 33.3521 53.3628 32.8494 53.3628 32.0373C53.3628 31.2252 52.9737 30.726 52.3016 30.726C51.6295 30.726 51.2439 31.2287 51.2439 32.0373C51.2439 32.8459 51.6648 33.3521 52.3051 33.3521Z" fill="#585757"/>
<path d="M54.5585 30.29H55.1988L56.0725 31.7631C56.6208 32.6912 56.8543 33.1622 56.8543 33.1622C56.8543 33.1622 56.8225 32.6876 56.8225 31.7666V30.29H57.3637V33.8091H56.7234L55.8461 32.3396C55.3084 31.4467 55.0573 30.9299 55.0573 30.9299C55.0573 30.9299 55.0997 31.4537 55.0997 32.3361V33.8091H54.5585V30.29Z" fill="#585757"/>
<path d="M60.9825 33.4857H60.979V33.5208C60.7385 33.7001 60.3316 33.8513 59.8399 33.8513C58.7504 33.8513 57.9934 33.1763 57.9934 32.0443C57.9934 30.9123 58.7645 30.2267 59.8081 30.2267C60.1442 30.2267 60.5227 30.283 60.8375 30.4623V31.0142C60.4944 30.7998 60.1336 30.733 59.8293 30.733C59.0794 30.733 58.5629 31.2498 58.5629 32.0443C58.5629 32.8388 59.0511 33.3486 59.8576 33.3486C60.0876 33.3486 60.2892 33.3029 60.4555 33.2325V32.2622H59.7338V31.7982H60.9861V33.4857H60.9825Z" fill="#585757"/>
<path d="M65.1355 30.74H64.2052V33.8126H63.6639V30.74H62.7407V30.29H65.1391V30.74H65.1355Z" fill="#585757"/>
<path d="M67.679 33.3591V33.8091H65.6343V30.29H67.6542V30.74H66.1756V31.8263H67.4844V32.2763H66.1756V33.3626H67.679V33.3591Z" fill="#585757"/>
<path d="M69.3487 32.4732H68.8817V33.8091H68.3405V30.29H69.3274C70.1517 30.29 70.6009 30.7225 70.6009 31.3869C70.5903 31.8896 70.3285 32.2377 69.9005 32.3888L70.8238 33.8091H70.1764L69.3451 32.4732H69.3487ZM68.8817 32.0232H69.3699C69.8368 32.0232 70.0526 31.7525 70.0526 31.3799C70.0526 30.9615 69.8121 30.7365 69.3416 30.7365H68.8782V32.0197L68.8817 32.0232Z" fill="#585757"/>
<path d="M71.5525 30.29H72.1928L72.6668 31.5767C72.9463 32.3185 73.1762 33.0497 73.1762 33.0497C73.1762 33.0497 73.4168 32.3396 73.7069 31.5767L74.2021 30.29H74.8424L75.1678 33.8091H74.6301L74.5028 32.431C74.4356 31.6822 74.3931 31.0213 74.3931 31.0213C74.3931 31.0213 74.1561 31.6857 73.8767 32.431L73.3814 33.7423H72.9569L72.4794 32.431C72.1893 31.6154 72.0018 31.0424 72.0018 31.0424C72.0018 31.1795 71.9664 31.7806 71.9169 32.431L71.8108 33.8091H71.2731L71.5455 30.29H71.5525Z" fill="#585757"/>
<path d="M79.7418 30.9615C79.4517 30.8033 79.2465 30.7365 78.8468 30.7365C78.157 30.7365 77.6051 31.2392 77.6051 32.0407C77.6051 32.8423 78.1251 33.3521 78.8857 33.3521C79.2005 33.3521 79.526 33.2536 79.7418 33.0919V33.6368C79.4941 33.7985 79.1368 33.8513 78.8362 33.8513C77.7961 33.8513 77.032 33.1622 77.032 32.0443C77.032 30.9263 77.7926 30.2408 78.8255 30.2408C79.151 30.2408 79.4658 30.283 79.7347 30.4341V30.9615H79.7418Z" fill="#585757"/>
<path d="M82.4303 32.9478H81.0011L80.7181 33.8091H80.1451L81.369 30.29H82.08L83.2899 33.8091H82.7133L82.4338 32.9478H82.4303ZM82.2817 32.4978L82.2251 32.3185C81.7723 30.9334 81.7192 30.6943 81.7192 30.6943C81.7192 30.6943 81.6626 30.9334 81.2028 32.3185L81.1462 32.4978H82.2817Z" fill="#585757"/>
<path d="M84.8428 32.4732H84.3759V33.8091H83.8346V30.29H84.8216C85.6458 30.29 86.0951 30.7225 86.0951 31.3869C86.0845 31.8896 85.8227 32.2377 85.3946 32.3888L86.3179 33.8091H85.6706L84.8393 32.4732H84.8428ZM84.3759 32.0232H84.864C85.331 32.0232 85.5468 31.7525 85.5468 31.3799C85.5468 30.9615 85.3062 30.7365 84.8357 30.7365H84.3723V32.0197L84.3759 32.0232Z" fill="#585757"/>
<path d="M88.8649 33.3591V33.8091H86.8203V30.29H88.8402V30.74H87.365V31.8263H88.6739V32.2763H87.365V33.3626H88.8685L88.8649 33.3591Z" fill="#585757"/>
<path d="M92.7314 30.9615C92.5191 30.8314 92.2113 30.7435 91.9319 30.7435C91.5428 30.7435 91.3128 30.9299 91.3128 31.2076C91.3128 31.517 91.617 31.6576 91.9743 31.8123C92.4201 32.0056 92.9153 32.2306 92.9153 32.8458C92.9153 33.4611 92.4094 33.8443 91.7267 33.8443C91.38 33.8443 91.0157 33.7704 90.761 33.6193V33.0603C91.0298 33.2572 91.3765 33.3697 91.7232 33.3697C92.1017 33.3697 92.3493 33.1868 92.3493 32.8669C92.3493 32.547 92.0557 32.4275 91.6878 32.2658C91.2527 32.0689 90.7433 31.8474 90.7433 31.2322C90.7433 30.617 91.2421 30.2619 91.9213 30.2619C92.1901 30.2619 92.4943 30.3076 92.7349 30.4306V30.965L92.7314 30.9615Z" fill="#585757"/>
<path d="M95.6003 33.3591V33.8091H93.5556V30.29H95.5755V30.74H94.1004V31.8263H95.4092V32.2763H94.1004V33.3626H95.6038L95.6003 33.3591Z" fill="#585757"/>
<path d="M97.2664 32.4732H96.7995V33.8091H96.2582V30.29H97.2452C98.0694 30.29 98.5187 30.7225 98.5187 31.3869C98.5081 31.8896 98.2463 32.2377 97.8183 32.3888L98.7416 33.8091H98.0942L97.2629 32.4732H97.2664ZM96.7995 32.0232H97.2876C97.7546 32.0232 97.9704 31.7525 97.9704 31.3799C97.9704 30.9615 97.7298 30.7365 97.2594 30.7365H96.7959V32.0197L96.7995 32.0232Z" fill="#585757"/>
<path d="M100.86 33.8091H100.22L99.0281 30.29H99.6047L100.057 31.6892C100.383 32.7017 100.546 33.331 100.546 33.331C100.546 33.331 100.715 32.7052 101.052 31.6892L101.508 30.29H102.084L100.86 33.8091Z" fill="#585757"/>
<path d="M102.668 30.29H103.206V33.8091H102.668V30.29Z" fill="#585757"/>
<path d="M106.574 30.9615C106.283 30.8033 106.078 30.7365 105.679 30.7365C104.989 30.7365 104.437 31.2392 104.437 32.0407C104.437 32.8423 104.957 33.3521 105.717 33.3521C106.032 33.3521 106.358 33.2536 106.574 33.0919V33.6368C106.326 33.7985 105.969 33.8513 105.668 33.8513C104.628 33.8513 103.864 33.1622 103.864 32.0443C103.864 30.9263 104.624 30.2408 105.657 30.2408C105.983 30.2408 106.298 30.283 106.566 30.4341V30.9615H106.574Z" fill="#585757"/>
<path d="M109.241 33.3591V33.8091H107.196V30.29H109.216V30.74H107.737V31.8263H109.046V32.2763H107.737V33.3626H109.241V33.3591Z" fill="#585757"/>
<path d="M111.813 30.9615C111.604 30.8314 111.293 30.7435 111.013 30.7435C110.624 30.7435 110.394 30.9299 110.394 31.2076C110.394 31.517 110.698 31.6576 111.056 31.8123C111.501 32.0056 111.996 32.2306 111.996 32.8458C111.996 33.4611 111.491 33.8443 110.808 33.8443C110.461 33.8443 110.097 33.7704 109.842 33.6193V33.0603C110.111 33.2572 110.458 33.3697 110.804 33.3697C111.183 33.3697 111.43 33.1868 111.43 32.8669C111.43 32.547 111.137 32.4275 110.769 32.2658C110.334 32.0689 109.824 31.8474 109.824 31.2322C109.824 30.617 110.323 30.2619 111.002 30.2619C111.271 30.2619 111.576 30.3076 111.816 30.4306V30.965L111.813 30.9615Z" fill="#585757"/>
<path d="M40.2423 20.0141V28.0014H40.2317C33.5742 28.0014 28.1618 33.3802 28.1618 39.9965H20.1212C20.1212 28.9541 29.1205 20.0106 40.2317 20.0106H40.2423V20.0141Z" fill="#E1690D"/>
<path d="M20.1212 0V0.0175778H20.1105C9.01349 0.0175778 0.0247623 8.93654 0 19.9578V20.0176C0 29.7838 7.0325 37.9047 16.3431 39.6449V31.4185C11.5216 29.8435 8.04068 25.3261 8.04068 20.0176V20C8.04068 13.3837 13.453 8.00492 20.1105 8.00492H20.1212V7.98734C25.4734 7.98734 30.0049 11.4572 31.5897 16.2489H39.8815C38.1198 6.99947 29.9483 0 20.1212 0Z" fill="#EC6C00"/>
<path d="M20.1212 14.0306C16.7959 14.0306 14.1004 16.7094 14.1004 20.0141C14.1004 23.3187 16.7959 25.9975 20.1212 25.9975C23.4464 25.9975 26.1419 23.3187 26.1419 20.0141C26.1419 16.7094 23.4464 14.0306 20.1212 14.0306Z" fill="#E1690D"/>
<path d="M39.2448 24.1976C31.0095 24.1976 24.3308 30.8349 24.3308 39.0191C24.3308 39.3496 24.3591 39.673 24.3803 40H28.1583C28.1583 33.3837 33.5707 28.0049 40.2282 28.0049H40.2388V24.2503C39.9063 24.2292 39.5773 24.2011 39.2412 24.2011L39.2448 24.1976Z" fill="#D2A258"/>
<path d="M155.682 34.3835C163.652 32.9384 168.938 25.3273 167.488 17.3835C166.038 9.43971 158.402 4.17145 150.431 5.61652C142.461 7.06158 137.175 14.6727 138.625 22.6165C140.075 30.5603 147.712 35.8285 155.682 34.3835Z" fill="#FFC629" stroke="#002E6D" stroke-width="0.79"/>
<path d="M141.887 14.4364L140.749 13.7175L140.907 13.47L141.9 13.6874L142.105 13.7342C142.071 13.6941 142.024 13.6339 141.964 13.5536L141.36 12.7544L141.501 12.5338L142.638 13.2527L142.537 13.4099L141.585 12.808L142.306 13.771L142.212 13.9181L141.014 13.664L141.984 14.2759L141.883 14.4331L141.887 14.4364Z" fill="#53575A"/>
<path d="M141.9 12.3265L141.746 12.2128L141.853 12.069L142.007 12.1827L141.9 12.3265ZM142.833 13.0086L142.048 12.4335L142.155 12.2897L142.94 12.8682L142.833 13.0119V13.0086Z" fill="#53575A"/>
<path d="M143.118 12.6174L142.363 11.9987L142.467 11.875L142.574 11.962C142.558 11.8984 142.558 11.8349 142.574 11.7747C142.591 11.7145 142.621 11.6543 142.668 11.5975C142.705 11.554 142.745 11.5172 142.789 11.4905C142.833 11.4637 142.876 11.447 142.917 11.4403C142.957 11.4336 142.997 11.4403 143.041 11.457C143.084 11.4737 143.141 11.5105 143.208 11.5674L143.671 11.9486L143.557 12.089L143.098 11.7112C143.041 11.6643 142.997 11.6376 142.96 11.6309C142.923 11.6209 142.89 11.6242 142.853 11.6409C142.816 11.6577 142.786 11.6811 142.756 11.7179C142.702 11.7847 142.675 11.8516 142.678 11.9218C142.682 11.9921 142.732 12.0656 142.823 12.1392L143.235 12.4769L143.121 12.614L143.118 12.6174Z" fill="#53575A"/>
<path d="M143.024 10.9488L142.883 10.8217L143.004 10.6913L143.145 10.8217L143.024 10.9521V10.9488ZM143.873 11.7312L143.155 11.0725L143.276 10.9421L143.994 11.6008L143.873 11.7312Z" fill="#53575A"/>
<path d="M143.953 11.2163L144.064 11.0725C144.118 11.1126 144.175 11.1293 144.232 11.1227C144.289 11.1126 144.346 11.0825 144.403 11.029C144.46 10.9755 144.493 10.922 144.503 10.8719C144.514 10.8217 144.503 10.7816 144.473 10.7481C144.446 10.7214 144.413 10.7114 144.373 10.7214C144.346 10.7281 144.289 10.7582 144.202 10.8083C144.077 10.8819 143.99 10.9287 143.943 10.9454C143.893 10.9622 143.846 10.9655 143.802 10.9555C143.755 10.9454 143.718 10.9254 143.685 10.8886C143.628 10.8284 143.604 10.7548 143.621 10.6679C143.635 10.5809 143.688 10.494 143.779 10.4071C143.836 10.3536 143.893 10.3101 143.95 10.2867C144.007 10.2599 144.061 10.2499 144.108 10.2532C144.155 10.2566 144.208 10.28 144.262 10.3201L144.151 10.4572C144.064 10.3937 143.973 10.4071 143.873 10.504C143.816 10.5575 143.782 10.6077 143.772 10.6512C143.762 10.6946 143.769 10.7281 143.792 10.7548C143.816 10.7816 143.849 10.7883 143.893 10.7782C143.916 10.7716 143.977 10.7415 144.074 10.6846C144.208 10.6077 144.295 10.5609 144.342 10.5442C144.389 10.5274 144.433 10.5241 144.477 10.5341C144.52 10.5442 144.557 10.5642 144.594 10.601C144.658 10.6679 144.681 10.7481 144.665 10.8451C144.648 10.9421 144.591 11.0357 144.493 11.1293C144.309 11.3066 144.131 11.3333 143.957 11.2129L143.953 11.2163Z" fill="#53575A"/>
<path d="M145.181 10.2867L145.295 10.3803C145.265 10.4204 145.232 10.4539 145.201 10.4773C145.154 10.5174 145.107 10.5442 145.067 10.5542C145.027 10.5642 144.99 10.5642 144.956 10.5475C144.923 10.5308 144.876 10.4873 144.815 10.4137L144.45 9.98907L144.349 10.076L144.265 9.97904L144.366 9.89209L144.208 9.70818L144.282 9.51758L144.503 9.77506L144.641 9.65802L144.725 9.75499L144.587 9.87203L144.956 10.3034C144.99 10.3435 145.017 10.3669 145.034 10.3703C145.06 10.377 145.087 10.3669 145.121 10.3402C145.138 10.3268 145.154 10.3067 145.178 10.2833L145.181 10.2867Z" fill="#53575A"/>
<path d="M145.429 10.28L144.836 9.50757L144.966 9.40726L145.057 9.52429C145.047 9.44404 145.05 9.38719 145.064 9.34707C145.077 9.30694 145.101 9.27684 145.138 9.25009C145.185 9.21331 145.245 9.1899 145.315 9.17987L145.359 9.33703C145.309 9.34707 145.268 9.36378 145.232 9.38719C145.201 9.4106 145.178 9.4407 145.168 9.47413C145.154 9.51092 145.154 9.54436 145.168 9.58114C145.188 9.64467 145.221 9.70486 145.262 9.76171L145.574 10.1663L145.429 10.2767V10.28Z" fill="#53575A"/>
<path d="M146.201 10.1663L146.1 10.0492C146.141 10.0359 146.171 10.0225 146.194 10.0058C146.228 9.98571 146.251 9.9623 146.265 9.93889C146.278 9.91548 146.288 9.88873 146.288 9.85864C146.288 9.84861 146.278 9.79176 146.258 9.68476L145.382 9.09289L145.547 8.98588L146.043 9.33365C146.104 9.37712 146.168 9.42728 146.231 9.48078C146.208 9.40721 146.188 9.3303 146.171 9.25674L146.05 8.65818L146.201 8.55786L146.406 9.60785C146.433 9.74495 146.443 9.83858 146.443 9.89208C146.443 9.94558 146.429 9.98905 146.406 10.0258C146.382 10.0626 146.352 10.0961 146.312 10.1228C146.282 10.1429 146.248 10.1562 146.204 10.1696L146.201 10.1663Z" fill="#53575A"/>
<path d="M147.141 8.58465C147.07 8.43083 147.06 8.29707 147.107 8.18003C147.157 8.063 147.248 7.97271 147.379 7.91252C147.506 7.85233 147.634 7.8423 147.758 7.87908C147.882 7.91586 147.976 8.00949 148.043 8.15328C148.117 8.31045 148.13 8.45089 148.08 8.56793C148.03 8.68496 147.939 8.77525 147.808 8.83544C147.677 8.89563 147.553 8.90566 147.429 8.86888C147.305 8.83209 147.211 8.73512 147.141 8.58465ZM147.308 8.50774C147.362 8.62143 147.429 8.69499 147.51 8.72509C147.59 8.75518 147.674 8.75184 147.755 8.71171C147.832 8.67493 147.885 8.61808 147.912 8.53449C147.942 8.45423 147.929 8.35392 147.875 8.24357C147.822 8.12987 147.755 8.05965 147.674 8.02956C147.593 7.99946 147.51 8.00281 147.429 8.04293C147.352 8.07972 147.298 8.13656 147.268 8.22016C147.238 8.30041 147.251 8.39739 147.305 8.51108L147.308 8.50774Z" fill="#53575A"/>
<path d="M148.526 8.50774L148.231 7.71524L148.08 7.77208L148.036 7.6517L148.187 7.59486L148.15 7.49788C148.124 7.42766 148.114 7.36747 148.12 7.32734C148.127 7.28387 148.147 7.24709 148.181 7.21031C148.214 7.17687 148.261 7.14677 148.325 7.12337C148.372 7.10665 148.429 7.08993 148.489 7.0799L148.516 7.22368C148.479 7.23037 148.446 7.2404 148.412 7.25378C148.362 7.27384 148.328 7.29725 148.315 7.324C148.301 7.35075 148.305 7.39422 148.325 7.44772L148.355 7.53132L148.55 7.45776L148.593 7.57814L148.399 7.6517L148.694 8.44421L148.526 8.50774Z" fill="#53575A"/>
<path d="M149.633 8.13316L149.345 6.82235L149.536 6.78222L149.653 7.32059L150.402 7.15674L150.284 6.61837L150.475 6.57825L150.764 7.88906L150.573 7.92918L150.439 7.31056L149.69 7.47441L149.825 8.09303L149.633 8.13316Z" fill="#53575A"/>
<path d="M151.784 7.45434H151.972C151.952 7.56135 151.905 7.64494 151.828 7.70848C151.754 7.76867 151.656 7.80545 151.536 7.81883C151.385 7.83555 151.261 7.80545 151.157 7.72854C151.056 7.65163 150.995 7.5346 150.979 7.37409C150.962 7.20689 150.995 7.07648 151.079 6.97616C151.163 6.87919 151.277 6.82235 151.422 6.80563C151.559 6.79225 151.677 6.82234 151.781 6.89925C151.881 6.97616 151.942 7.09654 151.958 7.2604V7.30387L151.17 7.38746C151.19 7.49447 151.23 7.57472 151.297 7.62154C151.365 7.6717 151.438 7.69176 151.526 7.68173C151.66 7.66835 151.747 7.59144 151.787 7.45434H151.784ZM151.163 7.25371L151.757 7.19017C151.74 7.10658 151.71 7.04639 151.667 7.0096C151.603 6.9561 151.526 6.93269 151.435 6.94273C151.354 6.95276 151.287 6.98285 151.237 7.0397C151.187 7.09654 151.16 7.16677 151.163 7.25371Z" fill="#53575A"/>
<path d="M152.948 7.60153C152.888 7.64835 152.827 7.68513 152.76 7.71188C152.696 7.73529 152.629 7.74866 152.559 7.75201C152.448 7.75201 152.358 7.73194 152.291 7.68178C152.223 7.63163 152.19 7.56475 152.187 7.48115C152.187 7.4243 152.2 7.37415 152.23 7.33068C152.26 7.2872 152.301 7.25377 152.354 7.22701C152.408 7.20026 152.488 7.18354 152.599 7.17017C152.747 7.1501 152.854 7.13004 152.921 7.10663V7.06316C152.921 6.99628 152.905 6.94947 152.871 6.92272C152.824 6.88594 152.757 6.86587 152.663 6.86922C152.579 6.86922 152.515 6.88594 152.475 6.91269C152.435 6.93944 152.405 6.9896 152.384 7.05982L152.207 7.03976C152.23 6.93609 152.28 6.85918 152.358 6.80903C152.435 6.75887 152.546 6.73546 152.686 6.73212C152.797 6.73212 152.888 6.74549 152.951 6.77559C153.015 6.80568 153.055 6.84247 153.076 6.88928C153.092 6.9361 153.102 7.00297 153.106 7.09326V7.31396C153.113 7.46777 153.119 7.56475 153.126 7.60488C153.136 7.645 153.149 7.68178 153.173 7.72191H152.985C152.965 7.69182 152.951 7.65169 152.945 7.60488L152.948 7.60153ZM152.928 7.2337C152.861 7.26045 152.764 7.28052 152.633 7.30058C152.556 7.31061 152.505 7.32399 152.475 7.33736C152.445 7.35074 152.421 7.36746 152.405 7.39087C152.388 7.41427 152.381 7.44102 152.381 7.47112C152.381 7.51793 152.401 7.55472 152.442 7.58147C152.482 7.60822 152.535 7.62159 152.603 7.62159C152.666 7.62159 152.727 7.60822 152.777 7.58147C152.831 7.55472 152.868 7.52128 152.894 7.47781C152.921 7.43434 152.931 7.37415 152.931 7.29389V7.2337H152.928Z" fill="#53575A"/>
<path d="M153.421 7.72854L153.472 6.38763L153.653 6.39432L153.603 7.73523L153.421 7.72854Z" fill="#53575A"/>
<path d="M154.32 7.6316L154.334 7.77873C154.283 7.78541 154.24 7.78541 154.2 7.78541C154.136 7.78207 154.086 7.76869 154.049 7.74529C154.012 7.72522 153.988 7.69513 153.975 7.66503C153.961 7.6316 153.961 7.56806 153.968 7.47109L154.008 6.91266L153.878 6.90262L153.888 6.77556L154.018 6.78559L154.035 6.54483L154.223 6.45789L154.2 6.79562L154.381 6.809L154.371 6.93606L154.19 6.92269L154.149 7.49115C154.146 7.54465 154.149 7.57809 154.159 7.59481C154.173 7.61822 154.203 7.6316 154.243 7.63494C154.263 7.63494 154.29 7.63494 154.324 7.63494L154.32 7.6316Z" fill="#53575A"/>
<path d="M154.501 7.79211L154.679 6.46124L154.857 6.48465L154.793 6.96283C154.84 6.9227 154.894 6.89595 154.951 6.88257C155.008 6.86585 155.068 6.86251 155.132 6.87254C155.246 6.88592 155.33 6.92604 155.387 6.98958C155.444 7.05311 155.464 7.15343 155.444 7.29722L155.364 7.90915L155.186 7.88574L155.266 7.27381C155.277 7.19021 155.266 7.12668 155.23 7.08655C155.196 7.04643 155.142 7.01967 155.072 7.00964C154.995 6.99961 154.924 7.01299 154.864 7.05311C154.803 7.09324 154.763 7.17015 154.75 7.29053L154.679 7.81887L154.501 7.79546V7.79211Z" fill="#53575A"/>
<path d="M156.951 8.14659C156.88 8.17668 156.81 8.1934 156.739 8.20009C156.669 8.20678 156.602 8.20009 156.535 8.18002C156.427 8.14993 156.35 8.10311 156.296 8.03624C156.246 7.96936 156.233 7.89579 156.253 7.81554C156.266 7.76204 156.296 7.71857 156.337 7.68513C156.377 7.65169 156.427 7.62828 156.488 7.62159C156.545 7.61156 156.629 7.61491 156.739 7.63497C156.887 7.65838 156.994 7.66841 157.065 7.66506L157.078 7.62494C157.095 7.5614 157.092 7.51124 157.068 7.4778C157.035 7.42765 156.974 7.39086 156.884 7.36746C156.803 7.34405 156.739 7.34071 156.692 7.35408C156.645 7.36746 156.602 7.40758 156.565 7.47112L156.4 7.40424C156.454 7.31061 156.521 7.25042 156.608 7.22367C156.696 7.19692 156.81 7.20361 156.947 7.24039C157.055 7.27048 157.135 7.30727 157.189 7.35408C157.243 7.4009 157.269 7.44771 157.276 7.49787C157.279 7.54803 157.269 7.6149 157.246 7.70185L157.189 7.91251C157.149 8.05964 157.125 8.15662 157.122 8.19674C157.122 8.23687 157.122 8.28034 157.135 8.32047L156.954 8.27031C156.944 8.23353 156.944 8.19006 156.951 8.14324V8.14659ZM157.035 7.78879C156.964 7.79548 156.863 7.78879 156.733 7.77207C156.655 7.76204 156.602 7.75869 156.572 7.76204C156.538 7.76538 156.511 7.77541 156.491 7.79548C156.468 7.8122 156.454 7.8356 156.447 7.8657C156.434 7.90917 156.444 7.95264 156.474 7.98942C156.504 8.0262 156.551 8.05296 156.619 8.07302C156.682 8.08974 156.739 8.09308 156.8 8.08305C156.857 8.07302 156.904 8.04961 156.941 8.01617C156.978 7.98273 157.004 7.92589 157.028 7.84898L157.045 7.79213L157.035 7.78879Z" fill="#53575A"/>
<path d="M157.37 8.40069L157.719 7.49115L157.87 7.548L157.82 7.67841C157.877 7.64163 157.934 7.62156 157.997 7.61822C158.061 7.61487 158.125 7.62491 158.195 7.65166C158.249 7.67172 158.296 7.69847 158.333 7.73191C158.373 7.76535 158.4 7.79879 158.42 7.83557C158.437 7.87235 158.447 7.91248 158.444 7.9593C158.444 8.00611 158.424 8.06964 158.393 8.15324L158.179 8.71167L158.008 8.64814L158.219 8.0964C158.246 8.02952 158.256 7.97936 158.252 7.94258C158.249 7.90579 158.236 7.87235 158.209 7.84226C158.182 7.81216 158.148 7.78876 158.105 7.77538C158.024 7.74529 157.951 7.74194 157.887 7.76869C157.823 7.79544 157.769 7.86232 157.726 7.97267L157.534 8.46757L157.367 8.40403L157.37 8.40069Z" fill="#53575A"/>
<path d="M159.074 9.14306L159.131 9.03271C159.081 9.05946 159.027 9.07284 158.97 9.07284C158.913 9.07284 158.86 9.05946 158.806 9.02937C158.695 8.97252 158.618 8.88558 158.575 8.7652C158.534 8.64482 158.548 8.51106 158.621 8.36728C158.672 8.26696 158.732 8.19339 158.803 8.14324C158.873 8.09308 158.947 8.06632 159.027 8.06298C159.105 8.06298 159.182 8.07636 159.256 8.11648C159.309 8.14324 159.353 8.18002 159.386 8.22349C159.42 8.26696 159.443 8.31712 159.454 8.36728L159.672 7.93591L159.833 8.01617L159.225 9.21328L159.074 9.13637V9.14306ZM158.783 8.45422C158.725 8.56791 158.709 8.66154 158.732 8.74514C158.756 8.82539 158.803 8.88224 158.873 8.91902C158.94 8.95246 159.014 8.9558 159.091 8.92905C159.168 8.9023 159.232 8.83542 159.286 8.72842C159.346 8.60804 159.366 8.50438 159.346 8.42412C159.323 8.34387 159.276 8.28368 159.199 8.24355C159.131 8.21011 159.058 8.20677 158.984 8.23686C158.907 8.26696 158.84 8.33718 158.783 8.45422Z" fill="#53575A"/>
<path d="M160.242 9.84522L160.765 8.54779L160.923 8.67152L160.554 9.50415C160.517 9.59109 160.477 9.67468 160.433 9.75828L160.638 9.60446L161.42 9.06275L161.604 9.20654L161.349 9.87197C161.289 10.0325 161.218 10.183 161.145 10.3167C161.215 10.2599 161.292 10.1963 161.383 10.1295L162.097 9.59109L162.252 9.71147L161.104 10.5207L160.957 10.407L161.346 9.41052L161.406 9.2567C161.359 9.29348 161.316 9.32692 161.275 9.35367L160.396 9.96895L160.239 9.84857L160.242 9.84522Z" fill="#53575A"/>
<path d="M162.245 11.1928L162.359 11.34C162.262 11.3901 162.168 11.4035 162.074 11.3835C161.98 11.3634 161.889 11.3099 161.805 11.2229C161.701 11.1159 161.644 10.9989 161.641 10.8718C161.638 10.7448 161.695 10.6244 161.809 10.514C161.93 10.397 162.054 10.3402 162.185 10.3468C162.315 10.3535 162.429 10.407 162.53 10.5107C162.627 10.6077 162.674 10.7214 162.678 10.8484C162.678 10.9755 162.621 11.0959 162.503 11.2096L162.47 11.2397L161.913 10.6712C161.839 10.7515 161.805 10.8351 161.805 10.9153C161.805 10.9989 161.839 11.0691 161.899 11.1293C161.993 11.2263 162.107 11.2464 162.242 11.1928H162.245ZM162.02 10.5843L162.436 11.0089C162.49 10.9454 162.52 10.8819 162.52 10.825C162.52 10.7414 162.493 10.6679 162.429 10.6043C162.372 10.5475 162.305 10.514 162.232 10.5107C162.154 10.504 162.084 10.5308 162.02 10.5843Z" fill="#53575A"/>
<path d="M162.309 11.7379L163.335 10.8685L163.453 11.0056L162.426 11.875L162.309 11.7379Z" fill="#53575A"/>
<path d="M162.651 12.1525L163.322 11.6342L163.225 11.5071L163.325 11.4269L163.423 11.554L163.503 11.4904C163.563 11.4436 163.614 11.4169 163.657 11.4102C163.701 11.4035 163.745 11.4102 163.785 11.4336C163.829 11.457 163.869 11.4938 163.909 11.5439C163.939 11.5841 163.969 11.6309 164 11.6877L163.869 11.7546C163.852 11.7212 163.832 11.6911 163.812 11.6643C163.778 11.6208 163.748 11.5974 163.714 11.5941C163.684 11.5874 163.644 11.6041 163.597 11.6409L163.527 11.6944L163.654 11.8583L163.553 11.9385L163.426 11.7747L162.755 12.293L162.644 12.1525H162.651Z" fill="#53575A"/>
<path d="M163.473 13.0888C163.399 13.0654 163.335 13.032 163.278 12.9919C163.221 12.9517 163.174 12.9016 163.134 12.8447C163.074 12.7511 163.043 12.6642 163.047 12.5839C163.05 12.5003 163.09 12.4368 163.161 12.39C163.208 12.3599 163.258 12.3432 163.312 12.3465C163.366 12.3498 163.416 12.3632 163.466 12.3967C163.516 12.4268 163.577 12.4836 163.647 12.5705C163.741 12.6842 163.818 12.7611 163.875 12.808L163.912 12.7846C163.969 12.7478 164 12.7076 164.003 12.6675C164.01 12.6073 163.99 12.5404 163.936 12.4635C163.889 12.3933 163.842 12.3498 163.798 12.3298C163.755 12.3097 163.694 12.3131 163.624 12.3365L163.543 12.176C163.644 12.1392 163.738 12.1392 163.818 12.176C163.902 12.2127 163.983 12.293 164.063 12.41C164.127 12.5037 164.161 12.5839 164.171 12.6541C164.181 12.7244 164.171 12.7779 164.141 12.818C164.11 12.8581 164.06 12.9016 163.986 12.9517L163.802 13.0755C163.674 13.1624 163.594 13.2193 163.567 13.246C163.537 13.2761 163.513 13.3095 163.496 13.3497L163.392 13.1925C163.409 13.1591 163.436 13.1256 163.473 13.0955V13.0888ZM163.771 12.8715C163.714 12.8314 163.641 12.7611 163.553 12.6608C163.503 12.604 163.463 12.5672 163.436 12.5471C163.409 12.5304 163.382 12.5204 163.352 12.517C163.325 12.517 163.298 12.5237 163.272 12.5404C163.231 12.5672 163.211 12.604 163.211 12.6508C163.211 12.6976 163.228 12.7511 163.265 12.8046C163.302 12.8581 163.345 12.8982 163.396 12.9283C163.446 12.9584 163.496 12.9718 163.547 12.9718C163.597 12.9718 163.654 12.9484 163.721 12.9016L163.771 12.8682V12.8715Z" fill="#53575A"/>
<path d="M163.621 13.5603L164.466 13.0754L164.547 13.2159L164.419 13.2894C164.5 13.2894 164.557 13.3028 164.594 13.3195C164.63 13.3396 164.661 13.3664 164.681 13.4031C164.711 13.4566 164.728 13.5168 164.728 13.5904L164.563 13.6138C164.563 13.5636 164.55 13.5202 164.53 13.4834C164.51 13.45 164.483 13.4232 164.453 13.4065C164.419 13.3898 164.382 13.3831 164.345 13.3898C164.278 13.3998 164.214 13.4232 164.154 13.46L163.711 13.7141L163.621 13.557V13.5603Z" fill="#53575A"/>
<path d="M164.577 14.6906L164.64 14.8678C164.533 14.8845 164.439 14.8678 164.355 14.821C164.271 14.7708 164.204 14.6939 164.151 14.5869C164.084 14.4531 164.07 14.3227 164.104 14.2024C164.141 14.082 164.231 13.985 164.375 13.9148C164.526 13.8412 164.664 13.8278 164.785 13.8713C164.906 13.9181 164.999 14.0051 165.063 14.1355C165.124 14.2592 165.137 14.3796 165.097 14.5033C165.06 14.6237 164.966 14.7207 164.818 14.7942L164.778 14.8109L164.429 14.0987C164.335 14.1522 164.275 14.2191 164.251 14.2993C164.228 14.3762 164.234 14.4565 164.275 14.5334C164.335 14.6538 164.436 14.7106 164.58 14.6972L164.577 14.6906ZM164.557 14.0418L164.818 14.5735C164.892 14.5301 164.936 14.4799 164.956 14.4264C164.986 14.3495 164.979 14.2692 164.939 14.189C164.902 14.1154 164.852 14.0653 164.781 14.0385C164.711 14.0084 164.637 14.0117 164.557 14.0452V14.0418Z" fill="#53575A"/>
<path d="M146.802 31.1125C146.886 31.2095 146.926 31.2596 146.919 31.2697C146.916 31.2797 146.906 31.283 146.899 31.2797C146.879 31.273 146.862 31.273 146.849 31.2797C146.775 31.3332 146.704 31.3767 146.641 31.4068L146.241 32.226C146.241 32.226 146.221 32.2427 146.198 32.2327L146.117 32.1959C146.117 32.1959 146.097 32.1759 146.104 32.1625L146.433 31.4837C146.382 31.4971 146.322 31.5138 146.245 31.5305C146.231 31.5238 146.221 31.5138 146.211 31.4971C146.201 31.477 146.188 31.4536 146.174 31.4302C146.168 31.4201 146.168 31.4101 146.171 31.4034C146.235 31.3901 146.298 31.3733 146.366 31.3533C146.453 31.3299 146.533 31.2964 146.61 31.2529C146.678 31.2162 146.735 31.1727 146.785 31.1292C146.792 31.1225 146.795 31.1192 146.798 31.1192L146.802 31.1125ZM147.174 32.1926L147.11 32.3263L147.349 32.44C147.349 32.44 147.362 32.4534 147.355 32.4668L147.328 32.5203C147.318 32.537 147.312 32.5437 147.298 32.5404L147.06 32.4267L146.986 32.5805C146.986 32.5805 146.966 32.5972 146.946 32.5872L146.865 32.547C146.865 32.547 146.845 32.527 146.852 32.5136L146.926 32.3598L146.413 32.1123C146.413 32.1123 146.402 32.0956 146.413 32.0789L146.439 32.0254C146.439 32.0254 146.453 32.0087 146.466 32.012L146.6 32.0755L146.704 31.8615C146.704 31.8615 146.721 31.8482 146.738 31.8549L147.094 32.0254L147.141 31.9284C147.141 31.9284 147.154 31.9184 147.171 31.9284C147.265 31.9752 147.312 32.0053 147.305 32.0187C147.298 32.0321 147.288 32.0388 147.278 32.0354C147.268 32.0321 147.258 32.0388 147.248 32.0588L147.231 32.0923L147.436 32.1926C147.436 32.1926 147.449 32.206 147.446 32.2193L147.419 32.2728C147.412 32.2896 147.402 32.2962 147.389 32.2896L147.184 32.1892L147.174 32.1926ZM146.996 30.6945C147.08 30.7915 147.12 30.8417 147.114 30.8517C147.11 30.8617 147.1 30.8651 147.094 30.8617C147.073 30.855 147.057 30.855 147.043 30.8617C146.949 30.9186 146.862 30.952 146.788 30.9687C146.748 30.9821 146.678 30.9955 146.58 31.0088C146.567 31.0022 146.557 30.9921 146.55 30.9788C146.54 30.9553 146.527 30.9319 146.51 30.9085C146.503 30.8985 146.503 30.8918 146.506 30.8851C146.557 30.8784 146.61 30.8684 146.661 30.8584C146.728 30.845 146.792 30.8216 146.849 30.7915C146.902 30.7647 146.946 30.738 146.983 30.7079C146.99 30.7012 146.993 30.6979 146.996 30.6979V30.6945ZM146.795 32.0087L146.731 32.1424L146.976 32.2595L147.04 32.1257L146.795 32.0087ZM146.976 31.4201L147.577 31.7111C147.597 31.7211 147.604 31.7345 147.597 31.7478L147.469 32.012C147.469 32.012 147.449 32.0287 147.426 32.0187L146.825 31.7278C146.805 31.7178 146.798 31.7044 146.805 31.691L146.933 31.4268C146.933 31.4268 146.953 31.4101 146.976 31.4201ZM147.154 30.952L147.362 31.0523C147.396 31.0122 147.426 30.9721 147.459 30.9252C147.466 30.9186 147.476 30.9186 147.489 30.9252L147.587 31.0022C147.587 31.0022 147.607 31.0256 147.6 31.0389C147.593 31.0557 147.58 31.059 147.563 31.049C147.55 31.049 147.54 31.049 147.53 31.059C147.516 31.0791 147.503 31.0958 147.489 31.1159L147.768 31.2496C147.788 31.2596 147.795 31.273 147.788 31.2864L147.677 31.5138L147.741 31.5439C147.741 31.5439 147.755 31.5606 147.748 31.574L147.721 31.6275C147.721 31.6275 147.708 31.6442 147.694 31.6375L146.936 31.273C146.936 31.273 146.922 31.2596 146.929 31.2463L146.956 31.1928C146.956 31.1928 146.969 31.176 146.983 31.1794L147.188 31.2797C147.221 31.2362 147.258 31.1928 147.295 31.1393L147.104 31.0456C147.104 31.0456 147.09 31.0323 147.097 31.0189L147.124 30.9654C147.124 30.9654 147.137 30.9487 147.151 30.952H147.154ZM147.369 31.8749L147.426 31.7545L147.033 31.5639L146.976 31.6843L147.369 31.8749ZM147.765 31.6643L148.261 31.905C148.261 31.905 148.281 31.9251 148.271 31.9418L148.244 31.9953C148.234 32.012 148.224 32.0187 148.207 32.012L148.067 31.9418L147.651 32.7978C147.61 32.8781 147.516 32.8814 147.362 32.8079L147.298 32.7778C147.298 32.7778 147.292 32.7611 147.298 32.741C147.308 32.7176 147.312 32.6841 147.312 32.644V32.6373C147.342 32.6607 147.372 32.6808 147.402 32.6975C147.469 32.731 147.513 32.7276 147.533 32.6875L147.926 31.8783L147.704 31.7713C147.704 31.7713 147.684 31.7512 147.694 31.7345L147.721 31.681C147.728 31.6642 147.741 31.6609 147.758 31.6676L147.765 31.6643ZM147.315 31.3365L147.547 31.4469L147.62 31.2931L147.426 31.1994C147.385 31.2496 147.349 31.2964 147.315 31.3365ZM148.02 31.3365L148.382 31.5104C148.382 31.5104 148.402 31.5305 148.392 31.5472L148.365 31.6007C148.355 31.6174 148.345 31.6241 148.328 31.6174L147.966 31.4436C147.966 31.4436 147.946 31.4235 147.956 31.4068L147.983 31.3533C147.989 31.3365 148.003 31.3332 148.02 31.3399V31.3365Z" fill="#53575A"/>
<path d="M149.804 31.8582L149.952 31.9351C149.952 31.9351 149.972 31.9585 149.969 31.9652C149.969 31.9819 149.955 31.9886 149.939 31.9886C149.922 31.9852 149.908 31.9886 149.902 32.0086C149.858 32.0822 149.825 32.1424 149.791 32.1892L150.311 32.2995L150.382 31.9718C150.382 31.9718 150.398 31.9518 150.422 31.9585C150.529 31.9819 150.583 31.9986 150.579 32.0153C150.576 32.032 150.566 32.0421 150.553 32.0387C150.539 32.0387 150.529 32.0488 150.522 32.0688L150.465 32.333L151.187 32.4835C151.204 32.4868 151.21 32.4968 151.207 32.5102L151.19 32.5838C151.187 32.6038 151.177 32.6105 151.157 32.6072L150.435 32.4567L150.348 32.8714L150.965 33.0018C150.982 33.0051 150.989 33.0151 150.985 33.0352L150.972 33.0954C150.969 33.1121 150.959 33.1221 150.942 33.1188L150.324 32.9884L150.22 33.4799L151.046 33.6538C151.063 33.6572 151.069 33.6672 151.066 33.6839L151.049 33.7575C151.046 33.7742 151.036 33.7842 151.019 33.7809L149.113 33.383C149.097 33.3796 149.09 33.3696 149.093 33.3495L149.11 33.276C149.11 33.276 149.123 33.2526 149.14 33.2592L150.066 33.4532L150.17 32.9616L149.499 32.8212C149.482 32.8179 149.476 32.8078 149.479 32.7878L149.492 32.7276C149.496 32.7108 149.506 32.7008 149.523 32.7042L150.194 32.8446L150.281 32.43L149.704 32.3096C149.66 32.3631 149.617 32.4132 149.573 32.4601C149.523 32.5069 149.469 32.5503 149.415 32.5838C149.395 32.5804 149.382 32.5737 149.368 32.5671C149.341 32.5503 149.311 32.5336 149.284 32.5202C149.274 32.5136 149.271 32.5069 149.271 32.5035C149.271 32.4935 149.278 32.4902 149.284 32.4868C149.372 32.4366 149.449 32.3664 149.526 32.2795C149.57 32.2293 149.613 32.1758 149.65 32.1156C149.69 32.0554 149.734 31.9752 149.781 31.8782C149.788 31.8682 149.794 31.8648 149.801 31.8648L149.804 31.8582Z" fill="#53575A"/>
<path d="M152.455 32.6975L153.227 32.6841C153.243 32.6841 153.253 32.6942 153.253 32.7142V32.7744C153.253 32.7945 153.247 32.8045 153.23 32.8045H152.941L152.958 33.9314C152.958 33.9481 152.948 33.9548 152.925 33.9548H152.837C152.814 33.9548 152.801 33.9481 152.801 33.9314L152.784 32.8079L152.458 32.8145C152.442 32.8145 152.431 32.8045 152.431 32.7844V32.7243C152.431 32.7042 152.438 32.6942 152.455 32.6942V32.6975ZM152.539 32.9583L152.7 32.9884C152.7 32.9884 152.723 33.0018 152.723 33.0118C152.723 33.0252 152.717 33.0352 152.703 33.0352C152.68 33.0419 152.666 33.0653 152.663 33.0988C152.666 33.3262 152.663 33.4833 152.65 33.5703C152.636 33.6539 152.619 33.7274 152.603 33.791C152.603 33.801 152.592 33.8077 152.576 33.8077C152.488 33.7843 152.445 33.7709 152.445 33.7642C152.478 33.6639 152.495 33.5803 152.505 33.5168C152.515 33.3964 152.522 33.2158 152.522 32.9784C152.522 32.965 152.529 32.9583 152.539 32.9583ZM152.556 32.3263L153.126 32.3163C153.143 32.3163 153.153 32.3263 153.153 32.3464V32.4066C153.153 32.4266 153.146 32.4367 153.129 32.4367L152.559 32.4467C152.542 32.4467 152.532 32.4367 152.532 32.4166V32.3564C152.532 32.3364 152.539 32.3263 152.556 32.3263ZM153.102 32.955H153.183C153.206 32.955 153.217 32.965 153.22 32.9851C153.203 33.0553 153.196 33.1255 153.196 33.1924C153.196 33.3763 153.23 33.5435 153.284 33.6973C153.284 33.7074 153.277 33.714 153.264 33.7174C153.186 33.7241 153.146 33.7274 153.136 33.7274L153.123 33.7007C153.092 33.4733 153.076 33.2359 153.072 32.9884C153.072 32.9684 153.082 32.955 153.106 32.955H153.102ZM153.354 32.2895L154.414 32.2728C154.431 32.2728 154.441 32.2829 154.441 32.3029V32.3631C154.441 32.3832 154.434 32.3932 154.418 32.3932L153.357 32.4099C153.341 32.4099 153.331 32.3999 153.331 32.3798V32.3196C153.331 32.2996 153.337 32.2895 153.354 32.2895ZM153.368 33.1121L154.411 33.0954C154.434 33.0954 154.448 33.1021 154.448 33.1155L154.461 33.9046C154.461 33.9046 154.451 33.9281 154.428 33.9281H154.34C154.317 33.9281 154.307 33.9214 154.304 33.9046V33.8311L153.505 33.8445V33.918C153.505 33.918 153.495 33.9414 153.472 33.9414H153.384C153.361 33.9414 153.351 33.9347 153.347 33.918L153.334 33.1389C153.334 33.1188 153.344 33.1055 153.368 33.1055V33.1121ZM153.445 32.5337L154.32 32.5203C154.344 32.5203 154.357 32.527 154.357 32.5403L154.364 32.9483C154.364 32.9483 154.354 32.9717 154.33 32.9717L153.455 32.9851C153.431 32.9851 153.421 32.9784 153.418 32.9617L153.411 32.5537C153.411 32.5537 153.421 32.5303 153.445 32.5303V32.5337ZM153.495 33.4164L153.82 33.4098V33.2258L153.492 33.2325V33.4164H153.495ZM153.502 33.7308L153.827 33.7241V33.5301L153.498 33.5368V33.7308H153.502ZM154.206 32.8547V32.6407L153.572 32.6507V32.8647L154.206 32.8547ZM153.975 33.2225V33.4064L154.294 33.3997V33.2158L153.975 33.2225ZM153.981 33.7207L154.297 33.714V33.5201L153.978 33.5268V33.7207H153.981Z" fill="#53575A"/>
<path d="M156.434 31.9485C156.434 31.9485 156.414 31.9552 156.4 31.9618C156.347 31.9986 156.28 32.0354 156.203 32.0755C156.189 32.0856 156.172 32.0923 156.159 32.0989L156.246 32.42L156.652 32.3096C156.669 32.3063 156.679 32.3096 156.686 32.333L156.702 32.3899C156.709 32.4099 156.702 32.42 156.686 32.4266L156.303 32.5303C156.367 32.5972 156.424 32.6473 156.474 32.6841C156.538 32.7343 156.639 32.7844 156.776 32.8379C156.79 32.8379 156.8 32.8446 156.8 32.8513C156.8 32.8547 156.8 32.8614 156.79 32.8714C156.78 32.8914 156.763 32.9182 156.743 32.9449C156.736 32.9583 156.729 32.965 156.723 32.965C156.712 32.965 156.699 32.965 156.682 32.965C156.588 32.9249 156.501 32.8714 156.421 32.8078C156.39 32.7844 156.364 32.761 156.333 32.7343L156.555 33.5502C156.555 33.5502 156.548 33.5736 156.525 33.5803L156.441 33.6037C156.417 33.6104 156.404 33.6037 156.4 33.5937L156.196 32.8313C156.196 32.8313 156.186 32.8614 156.182 32.8747C156.152 32.9583 156.115 33.0419 156.075 33.1222C156.028 33.2058 155.978 33.2793 155.924 33.3429C155.907 33.3462 155.894 33.3462 155.884 33.3429C155.85 33.3262 155.817 33.3128 155.783 33.3027C155.776 33.2961 155.773 33.2894 155.773 33.286C155.823 33.2292 155.867 33.179 155.897 33.1289C155.941 33.0653 155.984 32.9817 156.025 32.8814C156.048 32.8212 156.078 32.7209 156.112 32.5838L155.652 32.7075C155.636 32.7109 155.625 32.7075 155.619 32.6841L155.602 32.6273C155.595 32.6072 155.602 32.5972 155.619 32.5905L156.092 32.4634L156.011 32.1658C155.988 32.1759 155.964 32.1859 155.941 32.1959C155.844 32.2327 155.753 32.2628 155.672 32.2829C155.649 32.2895 155.632 32.2829 155.619 32.2695C155.595 32.2528 155.565 32.2327 155.535 32.2126C155.532 32.1993 155.535 32.1892 155.555 32.1859L155.682 32.1524C155.783 32.1257 155.87 32.0956 155.944 32.0655C156.011 32.0421 156.075 32.0153 156.139 31.9786C156.213 31.9418 156.27 31.9017 156.317 31.8548C156.323 31.8481 156.327 31.8448 156.33 31.8448C156.347 31.8415 156.36 31.8415 156.367 31.8448C156.468 31.8849 156.518 31.9117 156.521 31.9251C156.525 31.9384 156.521 31.9485 156.501 31.9518H156.437L156.434 31.9485ZM156.773 31.9618C156.88 31.9317 156.937 31.9251 156.941 31.9418C156.944 31.9585 156.941 31.9685 156.927 31.9752C156.914 31.9819 156.91 31.9953 156.917 32.0153L157.165 32.9416C157.165 32.9416 157.159 32.965 157.139 32.9717L157.055 32.9951C157.031 33.0018 157.018 32.9951 157.014 32.9817L156.746 31.9919C156.746 31.9919 156.753 31.9685 156.773 31.9618ZM157.159 31.6442L157.347 31.6141C157.367 31.6141 157.38 31.6174 157.38 31.6208C157.383 31.6341 157.373 31.6442 157.353 31.6475C157.326 31.6676 157.32 31.701 157.333 31.7545L157.696 33.0954C157.722 33.1924 157.655 33.2626 157.498 33.3027L157.347 33.3429C157.347 33.3429 157.326 33.3362 157.32 33.3128C157.306 33.2894 157.286 33.266 157.253 33.2359C157.249 33.2225 157.253 33.2125 157.263 33.2091C157.333 33.2058 157.394 33.1957 157.447 33.1824C157.511 33.1656 157.534 33.1355 157.524 33.0921L157.172 31.7846C157.162 31.7445 157.152 31.7144 157.145 31.6977C157.139 31.6843 157.132 31.6709 157.132 31.6609C157.132 31.6509 157.139 31.6408 157.162 31.6341L157.159 31.6442Z" fill="#53575A"/>
<path d="M158.762 30.9018C158.86 30.8449 158.91 30.8249 158.917 30.8383C158.927 30.8516 158.923 30.865 158.91 30.875C158.9 30.8851 158.9 30.8984 158.91 30.9185L158.984 31.0489L159.356 30.8349C159.356 30.8349 159.383 30.8316 159.393 30.8483L159.423 30.8984C159.433 30.9152 159.43 30.9285 159.417 30.9386L158.511 31.4569C158.511 31.4569 158.484 31.4602 158.474 31.4435L158.444 31.39C158.434 31.3733 158.437 31.3599 158.45 31.3532L158.846 31.1258L158.739 30.9386C158.739 30.9386 158.739 30.9118 158.759 30.9018H158.762ZM158.739 31.3699C158.803 31.4067 158.86 31.4435 158.907 31.4803C158.954 31.5104 158.994 31.5438 159.038 31.5873C159.038 31.5906 159.004 31.6274 158.927 31.6943C158.903 31.6675 158.87 31.6341 158.83 31.6007C158.783 31.5605 158.729 31.5238 158.668 31.4903C158.662 31.4803 158.685 31.4402 158.739 31.3699ZM158.692 31.8448L159.682 31.2763C159.682 31.2763 159.709 31.273 159.715 31.2897L159.745 31.3398C159.756 31.3566 159.752 31.3699 159.739 31.3766L158.749 31.9451C158.749 31.9451 158.722 31.9484 158.712 31.9317L158.682 31.8816C158.682 31.8816 158.675 31.8515 158.692 31.8448ZM158.944 32.0053L159.675 31.5839C159.695 31.5706 159.709 31.5739 159.715 31.5839L160.037 32.139C160.037 32.139 160.037 32.1658 160.021 32.1792L159.943 32.2226C159.923 32.2327 159.91 32.2327 159.903 32.2193L159.86 32.1424L159.339 32.44L159.383 32.5169C159.383 32.5169 159.383 32.5436 159.366 32.5537L159.289 32.5971C159.269 32.6072 159.256 32.6072 159.246 32.5938L158.927 32.0454C158.917 32.0287 158.923 32.0153 158.944 32.0019V32.0053ZM159.279 32.3363L159.799 32.0387L159.631 31.7511L159.111 32.0487L159.279 32.3363ZM159.235 31.069L159.373 31.0422C159.397 31.0389 159.41 31.0422 159.417 31.0523C159.42 31.0589 159.417 31.069 159.41 31.079C159.397 31.0857 159.393 31.0991 159.397 31.1125C159.413 31.2261 159.417 31.3198 159.407 31.3933C159.407 31.4101 159.407 31.4201 159.4 31.4234C159.39 31.4301 159.376 31.4301 159.36 31.4301C159.326 31.4335 159.296 31.4402 159.269 31.4468C159.256 31.4468 159.249 31.4468 159.249 31.4468C159.249 31.4468 159.249 31.4402 159.249 31.4335C159.256 31.3666 159.259 31.3131 159.256 31.2663C159.256 31.2061 159.246 31.1526 159.232 31.0991C159.229 31.0857 159.232 31.0757 159.235 31.0723V31.069ZM159.628 30.6276L160.386 31.9417C160.386 31.9417 160.386 31.9685 160.366 31.9819L160.289 32.0253C160.269 32.0387 160.255 32.0354 160.245 32.0253L159.44 30.6343C159.44 30.6343 159.44 30.6109 159.46 30.5975L159.994 30.2932C160.017 30.2798 160.034 30.2731 160.047 30.2731C160.091 30.2731 160.118 30.2798 160.121 30.2865V30.9051C160.121 30.9051 160.121 30.9285 160.121 30.9352C160.125 30.9419 160.135 30.9486 160.148 30.9519C160.245 30.972 160.339 31.0088 160.43 31.0656C160.524 31.1225 160.594 31.196 160.641 31.2796C160.675 31.3365 160.688 31.3933 160.688 31.4535C160.688 31.5137 160.665 31.5706 160.621 31.6174C160.598 31.6575 160.544 31.701 160.463 31.7478C160.43 31.7679 160.41 31.7679 160.396 31.7478C160.366 31.711 160.336 31.6909 160.312 31.6776C160.306 31.6642 160.309 31.6542 160.323 31.6441L160.42 31.604C160.48 31.5706 160.514 31.5304 160.524 31.4836C160.534 31.4435 160.524 31.4034 160.504 31.3599C160.47 31.2997 160.413 31.2429 160.333 31.1894C160.242 31.1325 160.128 31.089 159.997 31.059C159.98 31.059 159.974 31.0556 159.967 31.0489C159.967 31.0422 159.96 31.0322 159.96 31.0188L159.98 30.4236L159.618 30.6309L159.628 30.6276Z" fill="#53575A"/>
<path d="M164.714 19.9639C164.714 26.4042 159.477 31.6241 153.015 31.6241C146.553 31.6241 141.316 26.4042 141.316 19.9639C141.316 13.5235 146.553 8.30371 153.015 8.30371C159.477 8.30371 164.714 13.5235 164.714 19.9639Z" fill="#54C0E8"/>
<path d="M158.326 13.1457C157.786 13.1324 157.246 13.109 156.716 13.129C156.562 13.1658 156.407 13.1892 156.266 13.236C155.558 13.4567 155.246 13.7376 154.998 14.4331C154.773 15.667 155.233 17.145 155.558 18.3756C155.783 18.817 155.921 19.1347 156.474 19.2684C156.622 19.255 156.71 19.2428 156.739 19.2316C157.031 18.8939 157.048 18.4859 156.964 18.088C156.87 17.7904 156.79 17.4995 156.706 17.2052C156.417 16.4729 156.035 15.7005 155.867 14.9648C155.867 14.6237 155.874 14.6906 156.109 14.4565C156.709 14.1957 157.518 14.3128 158.219 14.1823C158.427 14.0921 158.702 13.965 158.819 13.7543C158.967 13.3464 158.601 13.2193 158.323 13.1457H158.326Z" fill="#002E6D"/>
<path d="M150.727 14.2157C150.65 14.1188 150.576 14.0084 150.502 13.9114C150.207 13.6205 149.868 13.47 149.546 13.3229C149.437 13.2962 149.366 13.275 149.335 13.2594C148.493 13.0521 147.624 12.9885 146.795 13.0353C146.681 13.2995 146.862 13.6941 147.02 13.9315C147.396 14.2559 147.795 14.2592 148.315 14.3161C148.909 14.3395 149.677 14.2291 149.935 14.9481C149.976 15.784 149.61 16.5799 149.348 17.3757C149.184 18.0378 148.882 18.8069 149.754 19.1045C150.039 19.0811 150.093 19.0945 150.314 18.9005C150.59 18.3822 150.657 17.8171 150.761 17.242C150.848 16.5933 150.881 15.9646 150.905 15.3393C150.9 15.1208 150.89 14.9012 150.875 14.6805C150.821 14.5267 150.771 14.3729 150.724 14.2091L150.727 14.2157Z" fill="#002E6D"/>
<path d="M158.88 11.437C158.544 11.1661 158.125 11.0959 157.749 11.0491C157.186 11.0691 156.572 11.1327 156.494 11.7847C156.521 12.1358 156.501 12.1459 156.847 12.3498C157.078 12.39 157.323 12.4301 157.598 12.4569C158.071 12.4167 158.548 12.4535 158.937 12.0957C159.108 11.8416 159.027 11.6309 158.883 11.437H158.88Z" fill="#002E6D"/>
<path d="M147.218 12.1726C147.58 12.2562 147.899 12.293 148.318 12.2964C148.623 12.2796 148.922 12.2863 149.207 12.0723C149.526 11.5941 149.016 11.3266 148.66 11.1795C147.952 11.0357 146.839 10.7582 146.671 11.7279C146.725 12.0456 146.902 12.0523 147.221 12.1693L147.218 12.1726Z" fill="#002E6D"/>
<path d="M153.243 10.708V10.5709C153.25 10.1897 153.246 9.51977 153.23 8.56118C153.203 8.4174 152.968 8.46755 152.894 8.51102L152.864 8.56787C152.889 9.59333 152.9 10.2855 152.898 10.6444C152.354 10.621 151.405 10.504 151.069 11.0357C150.962 11.3567 151.006 11.3132 150.69 11.4369V11.4804C150.767 11.5005 150.898 11.5005 151.019 11.5072L150.784 11.6543L150.774 11.6877C150.858 11.7078 150.985 11.6744 151.099 11.7145C151.599 12.0021 152.062 11.7981 152.636 11.6677L152.908 11.6744C152.915 12.1124 152.915 12.5337 152.925 12.9618L152.777 13.0754C152.331 13.236 151.975 13.3731 151.643 13.7108C151.385 14.189 151.492 14.5601 151.878 14.948L151.908 14.9581V14.9815C152.106 15.0885 152.307 15.2055 152.559 15.2557C152.69 15.2757 152.824 15.2858 152.958 15.2925C152.972 15.5566 152.951 15.8141 152.978 16.1184C152.056 16.309 151.371 16.6066 151.7 17.69C151.757 17.8004 151.817 17.9174 151.878 18.0311C152.093 18.2852 152.327 18.4257 152.639 18.5895C152.787 18.5996 152.904 18.7166 153.015 18.7367C153.025 19.0343 153.039 19.2884 153.035 19.479C153.092 19.4857 153.149 19.489 153.206 19.4857C153.263 19.4857 153.321 19.479 153.374 19.4723C153.367 19.3954 153.371 18.72 153.408 18.6497C153.733 18.5227 154.055 18.4591 154.377 18.2652C154.595 18.0378 154.669 17.8338 154.699 17.5396L154.609 17.573C154.481 17.7502 154.371 17.8907 154.193 18.0278C154.035 18.0813 153.515 18.302 153.384 18.1849C153.371 17.68 153.314 17.145 153.334 16.6668C153.804 16.5698 154.169 16.513 154.468 16.0783C154.746 15.4797 154.488 15.1119 153.978 14.8544C153.757 14.8042 153.458 14.7474 153.24 14.6972C153.217 14.3027 153.21 13.9449 153.196 13.5703C153.317 13.5135 153.609 13.4332 153.924 13.3162C154.418 13.0788 154.696 12.8648 154.834 12.313C154.84 12.1358 154.844 11.982 154.82 11.8415C154.609 11.1861 153.804 10.8551 153.233 10.708H153.243ZM151.935 11.2162L151.75 11.2965C151.67 11.1995 151.656 11.1995 151.556 11.1995L151.499 11.3767C151.438 11.3924 151.373 11.4046 151.304 11.4135C151.146 11.34 151.19 11.2931 151.257 11.2062C151.499 11.0691 151.646 11.0557 151.935 11.1393V11.2162ZM152.918 14.6805L152.777 14.6538C152.639 14.6237 152.492 14.5802 152.391 14.5501C152.311 14.4921 152.26 14.4643 152.24 14.4665V14.4431L152.217 14.4331C151.989 13.9984 152.337 13.8613 152.673 13.7108L152.915 13.6506C152.931 13.8713 152.925 13.9549 152.915 14.6839L152.918 14.6805ZM152.992 18.1883L152.864 18.1682C152.374 18.0311 151.932 17.6098 152.106 17.1015C152.284 16.824 152.633 16.7303 152.958 16.6935C152.982 17.5228 153.012 17.5864 152.995 18.1883H152.992ZM153.814 15.5366C153.888 15.677 153.884 15.8308 153.753 15.9545C153.586 16.0448 153.471 16.0682 153.321 16.105L153.284 16.0883C153.267 15.8241 153.284 15.5432 153.284 15.2958C153.482 15.3025 153.663 15.3426 153.817 15.5366H153.814ZM153.784 12.4702L153.794 12.4936C153.582 12.6508 153.425 12.7277 153.21 12.818C153.193 12.4334 153.186 12.0656 153.2 11.6944C153.465 11.6777 153.854 11.8583 153.924 12.0857C153.931 12.206 153.918 12.3933 153.78 12.4735L153.784 12.4702Z" fill="#002E6D"/>
<path d="M153.894 25.2305C153.894 24.8426 153.579 24.5283 153.19 24.5283C152.801 24.5283 152.485 24.8426 152.485 25.2305C152.485 25.6184 152.801 25.9328 153.19 25.9328C153.579 25.9328 153.894 25.6184 153.894 25.2305ZM156.598 23.4917C156.625 23.4683 156.629 23.4248 156.605 23.3981C156.582 23.3713 156.541 23.3613 156.511 23.3814C156.494 23.3914 156.28 23.5318 155.971 23.7993C155.629 22.9467 155.219 22.2277 154.817 21.6459C154.33 20.9403 153.824 20.3685 153.374 19.9338C153.656 19.6094 153.958 19.2884 154.283 18.9741C154.31 18.9507 154.314 18.9072 154.29 18.8805C154.267 18.8537 154.226 18.847 154.196 18.8637C154.19 18.8704 153.747 19.1513 153.139 19.7098C152.532 19.148 152.093 18.8671 152.083 18.8637C152.052 18.8437 152.012 18.8504 151.989 18.8805C151.965 18.9072 151.968 18.9507 151.995 18.9741C152.321 19.2884 152.623 19.6094 152.905 19.9338C152.458 20.3718 151.948 20.9403 151.465 21.6459C151.076 22.2143 150.673 22.9132 150.338 23.7392C150.07 23.5084 149.885 23.3914 149.868 23.3814C149.838 23.3613 149.798 23.368 149.774 23.3981C149.751 23.4248 149.754 23.4683 149.781 23.4917C149.945 23.6489 150.1 23.8127 150.244 23.9732C149.623 25.5984 149.261 27.6883 149.667 30.233C149.674 30.2698 149.707 30.2965 149.744 30.2899C149.781 30.2865 149.808 30.2531 149.804 30.2163C149.801 30.1762 149.613 27.6181 150.71 24.5417C152.804 27.3238 152.576 30.4704 152.572 30.5039C152.572 30.5407 152.596 30.5741 152.633 30.5808C152.67 30.5875 152.703 30.5607 152.71 30.5206C153.113 28.0093 152.317 26.2003 151.579 25.1269C151.328 24.7624 151.069 24.4548 150.831 24.2073C151.328 22.9032 152.062 21.5222 153.136 20.208C154.23 21.5456 154.971 22.9533 155.468 24.2775C155.246 24.5116 155.015 24.7958 154.787 25.1269C154.049 26.2003 153.257 28.0093 153.659 30.5206C153.666 30.5574 153.7 30.5841 153.737 30.5808C153.773 30.5774 153.8 30.544 153.797 30.5039C153.797 30.4671 153.569 27.384 155.595 24.6253C156.659 27.6649 156.474 30.1762 156.471 30.2163C156.471 30.2531 156.494 30.2865 156.531 30.2899C156.568 30.2932 156.602 30.2698 156.608 30.233C157.011 27.7251 156.662 25.6586 156.058 24.0468C156.223 23.8595 156.4 23.6723 156.588 23.4917H156.598ZM149.972 21.7796C149.972 21.1744 149.479 20.6828 148.872 20.6828C148.264 20.6828 147.771 21.1744 147.771 21.7796C147.771 22.3849 148.264 22.8764 148.872 22.8764C149.479 22.8764 149.972 22.3849 149.972 21.7796ZM143.544 18.8604C143.514 18.8403 143.473 18.847 143.45 18.8771C143.427 18.9039 143.43 18.9473 143.457 18.9708C148.409 23.7325 147.939 30.1528 147.932 30.2163C147.932 30.2531 147.956 30.2865 147.993 30.2899C148.03 30.2932 148.063 30.2698 148.07 30.233C148.711 26.2304 147.446 23.3546 146.272 21.6425C145 19.79 143.554 18.8704 143.541 18.8604H143.544ZM158.518 21.7796C158.518 21.4854 158.403 21.2112 158.195 21.0038C157.987 20.7965 157.712 20.6828 157.417 20.6828C156.81 20.6828 156.317 21.1744 156.317 21.7796C156.317 22.3849 156.81 22.8764 157.417 22.8764C158.024 22.8764 158.518 22.3849 158.518 21.7796ZM162.839 18.8771C162.815 18.8504 162.775 18.8437 162.745 18.8604C162.731 18.8704 161.285 19.79 160.014 21.6425C158.84 23.3513 157.575 26.2304 158.216 30.233C158.222 30.2698 158.256 30.2965 158.293 30.2899C158.33 30.2865 158.356 30.2531 158.353 30.2163C158.346 30.1528 157.877 23.7291 162.829 18.9708C162.856 18.9473 162.859 18.9039 162.835 18.8771H162.839Z" fill="#FFC629"/>
<path d="M169.532 31.4603V26.0699H170.71L172.112 29.8853L172.394 30.6845C172.464 30.4872 172.568 30.1963 172.709 29.8217L174.125 26.0732H175.179V31.4636H174.424V26.9393L172.699 31.4636H171.995L170.28 26.8557V31.4636H169.525L169.532 31.4603Z" fill="#656464"/>
<path d="M176.433 26.829V26.0699H177.158V26.829H176.433ZM176.433 31.4603V27.5512H177.158V31.4603H176.433Z" fill="#656464"/>
<path d="M178.369 31.4602V27.5512H179.027V28.103C179.185 27.889 179.376 27.7284 179.604 27.6214C179.832 27.5144 180.09 27.4609 180.386 27.4609C180.614 27.4609 180.825 27.4944 181.02 27.5613C181.214 27.6281 181.372 27.7184 181.489 27.8254C181.61 27.9358 181.698 28.0762 181.758 28.2501C181.818 28.424 181.845 28.6915 181.845 29.0526V31.4569H181.12V29.076C181.12 28.7885 181.087 28.5778 181.023 28.444C180.956 28.3103 180.855 28.21 180.714 28.1364C180.577 28.0628 180.416 28.0261 180.231 28.0261C179.882 28.0261 179.607 28.123 179.403 28.317C179.198 28.5109 179.094 28.8453 179.094 29.3168V31.4536H178.369V31.4602Z" fill="#656464"/>
<path d="M183.063 26.829V26.0699H183.788V26.829H183.063ZM183.063 31.4603V27.5512H183.788V31.4603H183.063Z" fill="#656464"/>
<path d="M184.72 30.2966L185.445 30.1996C185.489 30.4738 185.603 30.6778 185.794 30.8115C185.985 30.9453 186.237 31.0122 186.549 31.0122C186.861 31.0122 187.106 30.952 187.277 30.8349C187.448 30.7179 187.535 30.5674 187.535 30.3869C187.535 30.2297 187.461 30.1093 187.314 30.0224C187.213 29.9622 186.965 29.8886 186.576 29.8017C186.012 29.6713 185.633 29.5609 185.445 29.4706C185.254 29.3803 185.106 29.2566 185.002 29.1061C184.898 28.9557 184.845 28.7818 184.845 28.5878C184.845 28.2534 184.989 27.9826 185.274 27.7753C185.559 27.5679 185.955 27.4609 186.462 27.4609C186.78 27.4609 187.059 27.5044 187.3 27.5913C187.542 27.6783 187.727 27.792 187.854 27.9391C187.982 28.0829 188.072 28.2902 188.119 28.5611L187.411 28.6581C187.344 28.2233 187.035 28.0026 186.482 28.0026C186.166 28.0026 185.932 28.0495 185.781 28.1431C185.626 28.2367 185.549 28.3571 185.549 28.5042C185.549 28.6514 185.623 28.7617 185.771 28.8453C185.858 28.8955 186.123 28.9724 186.559 29.0794C187.16 29.2232 187.549 29.3369 187.727 29.4205C187.904 29.5041 188.042 29.6211 188.139 29.7682C188.237 29.9154 188.287 30.0892 188.287 30.2899C188.287 30.6644 188.129 30.9687 187.81 31.1994C187.495 31.4301 187.062 31.5472 186.512 31.5472C185.485 31.5472 184.888 31.1292 184.724 30.2932L184.72 30.2966Z" fill="#656464"/>
<path d="M190.847 30.865L190.944 31.4502C190.743 31.4903 190.565 31.5104 190.404 31.5104C190.152 31.5104 189.948 31.4736 189.793 31.3967C189.639 31.3231 189.535 31.2195 189.475 31.089C189.418 30.9586 189.387 30.7012 189.387 30.3133V28.0662H188.861V27.5479H189.387V26.5848L190.112 26.1869V27.5479H190.843V28.0662H190.112V30.35C190.112 30.5607 190.132 30.6978 190.176 30.758C190.239 30.8449 190.354 30.8918 190.525 30.8918C190.605 30.8918 190.713 30.8817 190.843 30.8617L190.847 30.865Z" fill="#656464"/>
<path d="M191.632 31.4602V27.5512H192.289V28.1397C192.457 27.8655 192.611 27.6816 192.749 27.5947C192.89 27.5044 193.044 27.4609 193.219 27.4609C193.46 27.4609 193.709 27.5312 193.964 27.6716L193.715 28.2869C193.534 28.1933 193.36 28.1431 193.189 28.1431C193.034 28.1431 192.893 28.1832 192.766 28.2635C192.638 28.3437 192.548 28.4574 192.494 28.6012C192.403 28.8553 192.356 29.1229 192.356 29.4071V31.4536H191.632V31.4602Z" fill="#656464"/>
<path d="M194.457 32.965L194.383 32.3397C194.544 32.3798 194.682 32.3999 194.796 32.3999C194.95 32.3999 195.077 32.3765 195.175 32.3296C195.275 32.2828 195.356 32.2093 195.423 32.1123C195.446 32.0788 195.54 31.8582 195.708 31.4569L194.088 27.5512H194.869L195.762 29.8017C195.873 30.0825 195.977 30.3835 196.071 30.7012C196.151 30.4002 196.252 30.1026 196.366 29.815L197.278 27.5512H198.006L196.383 31.5271C196.168 32.0421 196 32.3865 195.879 32.5604C195.759 32.7343 195.618 32.858 195.46 32.9349C195.306 33.0118 195.128 33.0486 194.93 33.0486C194.792 33.0486 194.635 33.0218 194.463 32.965H194.457Z" fill="#656464"/>
<path d="M200.841 29.5074C200.841 28.8319 201.029 28.3236 201.408 27.9792C201.788 27.6348 202.267 27.4642 202.848 27.4642C203.428 27.4642 203.895 27.6348 204.277 27.9792C204.659 28.3236 204.851 28.8185 204.851 29.4672C204.851 30.1694 204.663 30.6911 204.284 31.0355C203.908 31.3799 203.428 31.5505 202.844 31.5505C202.261 31.5505 201.794 31.3766 201.412 31.0322C201.029 30.6878 200.838 30.1795 200.838 29.504L200.841 29.5074ZM201.59 29.5074C201.59 30.0156 201.714 30.3935 201.959 30.6409C202.204 30.8884 202.509 31.0121 202.871 31.0121C203.21 31.0121 203.502 30.8884 203.747 30.6376C203.992 30.3868 204.113 30.0123 204.113 29.5074C204.113 29.0024 203.988 28.6246 203.744 28.3771C203.499 28.1297 203.193 28.0059 202.831 28.0059C202.489 28.0059 202.197 28.1297 201.952 28.3805C201.71 28.6279 201.59 29.0058 201.59 29.5074Z" fill="#656464"/>
<path d="M206.012 31.4603V28.0696H205.371V27.5512H206.012V27.1366C206.012 26.8323 206.055 26.6016 206.139 26.4511C206.223 26.2973 206.354 26.1802 206.532 26.1C206.706 26.0197 206.927 25.9796 207.196 25.9796C207.404 25.9796 207.629 26.003 207.877 26.0465L207.77 26.625C207.619 26.6016 207.478 26.5882 207.343 26.5882C207.129 26.5882 206.971 26.6317 206.88 26.7153C206.787 26.7989 206.74 26.9594 206.74 27.1934V27.5512H207.578V28.0696H206.74V31.4603H206.015H206.012Z" fill="#656464"/>
<path d="M210.702 31.4603V26.0699H211.487V28.2802H214.557V26.0699H215.342V31.4603H214.557V28.9189H211.487V31.4603H210.702Z" fill="#656464"/>
<path d="M219.593 30.2063L220.341 30.2899C220.217 30.7079 219.992 31.0222 219.667 31.2329C219.341 31.4469 218.935 31.5505 218.455 31.5505C217.848 31.5505 217.358 31.3766 216.983 31.0322C216.607 30.6878 216.419 30.1896 216.419 29.5375C216.419 28.8854 216.607 28.3471 216.986 27.9926C217.365 27.6382 217.845 27.4609 218.425 27.4609C219.006 27.4609 219.442 27.6348 219.811 27.9859C220.18 28.337 220.368 28.842 220.368 29.5041V29.6813H217.164C217.194 30.1227 217.328 30.4537 217.573 30.6778C217.815 30.9018 218.11 31.0122 218.459 31.0122C219.002 31.0122 219.381 30.7446 219.596 30.2063H219.593ZM217.207 29.1396H219.599C219.566 28.7985 219.469 28.541 219.308 28.3738C219.076 28.1297 218.778 28.006 218.419 28.006C218.093 28.006 217.818 28.1097 217.586 28.3136C217.358 28.5176 217.231 28.7952 217.207 29.1429V29.1396Z" fill="#656464"/>
<path d="M224.152 30.9787C223.911 31.1659 223.656 31.3097 223.394 31.4067C223.132 31.5037 222.861 31.5505 222.579 31.5505C222.133 31.5505 221.777 31.4502 221.512 31.2495C221.247 31.0489 221.113 30.778 221.113 30.4336C221.113 30.2062 221.176 30.0056 221.3 29.8317C221.425 29.6578 221.596 29.5207 221.814 29.4238C222.032 29.3268 222.357 29.2532 222.797 29.2064C223.387 29.1429 223.82 29.0693 224.095 28.9824V28.8118C224.099 28.541 224.035 28.3537 223.907 28.2434C223.726 28.0862 223.451 28.0059 223.079 28.0059C222.743 28.0059 222.492 28.0594 222.324 28.1631C222.156 28.2668 222.035 28.4674 221.955 28.755L221.23 28.658C221.331 28.24 221.539 27.9391 221.847 27.7485C222.156 27.5579 222.602 27.4642 223.179 27.4642C223.629 27.4642 223.981 27.5278 224.236 27.6548C224.491 27.7819 224.652 27.9391 224.719 28.123C224.786 28.3069 224.82 28.5811 224.82 28.9389V29.8217C224.82 30.4403 224.837 30.8315 224.867 30.992C224.897 31.1526 224.961 31.3097 225.055 31.4602H224.3C224.223 31.3264 224.172 31.1659 224.149 30.9787H224.152ZM224.095 29.4973C223.83 29.5943 223.434 29.6779 222.908 29.7448C222.602 29.7849 222.388 29.8284 222.267 29.8785C222.146 29.9287 222.052 29.9989 221.985 30.0925C221.918 30.1862 221.884 30.2898 221.884 30.4136C221.884 30.6008 221.961 30.7513 222.116 30.8616C222.27 30.9753 222.485 31.0288 222.757 31.0288C223.028 31.0288 223.253 30.9787 223.465 30.8784C223.676 30.778 223.834 30.6443 223.941 30.4737C224.045 30.3065 224.099 30.0591 224.099 29.7381V29.494L224.095 29.4973Z" fill="#656464"/>
<path d="M226.034 31.4603V26.0699H226.759V31.4603H226.034Z" fill="#656464"/>
<path d="M229.604 30.865L229.702 31.4502C229.5 31.4903 229.322 31.5104 229.161 31.5104C228.91 31.5104 228.705 31.4736 228.551 31.3967C228.396 31.3231 228.292 31.2195 228.232 31.089C228.175 30.9586 228.145 30.7012 228.145 30.3133V28.0662H227.618V27.5479H228.145V26.5848L228.869 26.1869V27.5479H229.601V28.0662H228.869V30.35C228.869 30.5607 228.89 30.6978 228.933 30.758C228.997 30.8449 229.111 30.8918 229.282 30.8918C229.363 30.8918 229.47 30.8817 229.601 30.8617L229.604 30.865Z" fill="#656464"/>
<path d="M230.389 31.4603V26.0699H231.114V27.9993C231.285 27.8187 231.476 27.685 231.691 27.5947C231.906 27.5044 232.144 27.4609 232.402 27.4609C232.859 27.4609 233.218 27.568 233.483 27.7887C233.748 28.006 233.879 28.4039 233.879 28.9824V31.4603H233.154V28.9824C233.154 28.6447 233.073 28.4006 232.912 28.2535C232.751 28.1063 232.53 28.0328 232.248 28.0328C231.933 28.0328 231.664 28.1264 231.443 28.317C231.221 28.5042 231.111 28.842 231.111 29.3235V31.4636H230.386L230.389 31.4603Z" fill="#656464"/>
<path d="M240.273 30.9787C240.032 31.1659 239.777 31.3097 239.515 31.4067C239.253 31.5037 238.982 31.5505 238.7 31.5505C238.254 31.5505 237.898 31.4502 237.633 31.2495C237.368 31.0489 237.234 30.778 237.234 30.4336C237.234 30.2062 237.297 30.0056 237.421 29.8317C237.546 29.6578 237.717 29.5207 237.935 29.4238C238.153 29.3268 238.478 29.2532 238.918 29.2064C239.508 29.1429 239.941 29.0693 240.216 28.9824V28.8118C240.22 28.541 240.156 28.3537 240.028 28.2434C239.847 28.0862 239.572 28.0059 239.2 28.0059C238.864 28.0059 238.613 28.0594 238.445 28.1631C238.277 28.2668 238.156 28.4674 238.076 28.755L237.351 28.658C237.452 28.24 237.66 27.9391 237.968 27.7485C238.277 27.5579 238.723 27.4642 239.3 27.4642C239.75 27.4642 240.102 27.5278 240.357 27.6548C240.612 27.7819 240.773 27.9391 240.84 28.123C240.907 28.3102 240.941 28.5811 240.941 28.9389V29.8217C240.941 30.4403 240.958 30.8315 240.988 30.992C241.018 31.1526 241.082 31.3097 241.176 31.4602H240.421C240.344 31.3264 240.293 31.1659 240.27 30.9787H240.273ZM240.216 29.4973C239.951 29.5943 239.555 29.6779 239.029 29.7448C238.723 29.7849 238.509 29.8284 238.388 29.8785C238.267 29.9287 238.173 29.9989 238.106 30.0925C238.039 30.1862 238.005 30.2898 238.005 30.4136C238.005 30.6008 238.082 30.7513 238.237 30.8616C238.391 30.9753 238.606 31.0288 238.878 31.0288C239.149 31.0288 239.374 30.9787 239.586 30.8784C239.797 30.778 239.955 30.6443 240.062 30.4737C240.166 30.3065 240.22 30.0591 240.22 29.7381V29.494L240.216 29.4973Z" fill="#656464"/>
<path d="M242.179 31.4602V27.5512H242.837V28.103C242.994 27.889 243.185 27.7284 243.414 27.6214C243.642 27.5144 243.9 27.4609 244.195 27.4609C244.423 27.4609 244.635 27.4944 244.829 27.5613C245.024 27.6281 245.182 27.7184 245.299 27.8254C245.42 27.9358 245.507 28.0762 245.568 28.2501C245.628 28.424 245.655 28.6915 245.655 29.0526V31.4569H244.93V29.076C244.93 28.7885 244.897 28.5778 244.833 28.444C244.766 28.3103 244.665 28.21 244.524 28.1364C244.387 28.0628 244.222 28.0261 244.041 28.0261C243.692 28.0261 243.417 28.123 243.212 28.317C243.008 28.5109 242.904 28.8453 242.904 29.3168V31.4536H242.179V31.4602Z" fill="#656464"/>
<path d="M249.647 31.4602V30.972C249.516 31.1593 249.349 31.303 249.141 31.4034C248.933 31.5003 248.711 31.5505 248.473 31.5505C247.966 31.5505 247.53 31.3733 247.161 31.0155C246.792 30.6577 246.608 30.1561 246.608 29.5074C246.608 29.0626 246.688 28.6848 246.853 28.3771C247.017 28.0661 247.235 27.8388 247.51 27.6883C247.782 27.5378 248.087 27.4642 248.423 27.4642C248.661 27.4642 248.882 27.5111 249.087 27.6047C249.292 27.6983 249.459 27.8287 249.597 27.9959V26.0732H250.328V31.4636H249.651L249.647 31.4602ZM247.356 29.5107C247.356 30.019 247.473 30.3935 247.708 30.641C247.943 30.8884 248.215 31.0088 248.527 31.0088C248.839 31.0088 249.1 30.8917 249.329 30.6543C249.553 30.4169 249.667 30.0625 249.667 29.5843C249.667 29.0359 249.553 28.6346 249.329 28.3805C249.104 28.1297 248.819 28.0026 248.473 28.0026C248.168 28.0026 247.906 28.123 247.688 28.3671C247.47 28.6112 247.359 28.9924 247.359 29.5107H247.356Z" fill="#656464"/>
<path d="M255.106 31.4603L253.546 26.0699H254.344L255.243 29.6044C255.337 29.9655 255.421 30.3334 255.495 30.7079L255.76 29.7114L256.891 26.0732H257.83L258.676 28.8019C258.884 29.4673 259.035 30.1026 259.139 30.7112C259.213 30.3601 259.31 29.9689 259.431 29.5375L260.36 26.0732H261.148L259.525 31.4636H258.77L257.522 27.3573L257.334 26.7253C257.277 26.9594 257.22 27.17 257.163 27.3573L255.908 31.4636H255.109L255.106 31.4603Z" fill="#656464"/>
<path d="M264.648 30.2063L265.396 30.2899C265.272 30.7079 265.047 31.0222 264.721 31.2329C264.396 31.4469 263.993 31.5505 263.51 31.5505C262.903 31.5505 262.413 31.3766 262.037 31.0322C261.662 30.6878 261.474 30.1896 261.474 29.5375C261.474 28.8854 261.662 28.3471 262.041 27.9926C262.42 27.6382 262.9 27.4609 263.48 27.4609C264.061 27.4609 264.497 27.6348 264.866 27.9859C265.235 28.337 265.423 28.842 265.423 29.5041V29.6813H262.219C262.249 30.1227 262.383 30.4537 262.628 30.6778C262.87 30.9018 263.165 31.0122 263.514 31.0122C264.057 31.0122 264.436 30.7446 264.648 30.2063ZM262.262 29.1396H264.654C264.621 28.7985 264.524 28.541 264.363 28.3738C264.131 28.1297 263.832 28.006 263.47 28.006C263.145 28.006 262.87 28.1097 262.638 28.3136C262.41 28.5176 262.282 28.7952 262.259 29.1429L262.262 29.1396Z" fill="#656464"/>
<path d="M266.392 31.4603V26.0699H267.117V31.4603H266.392Z" fill="#656464"/>
<path d="M268.556 31.4603V28.0696H267.915V27.5512H268.556V27.1366C268.556 26.8323 268.6 26.6016 268.684 26.4511C268.768 26.2973 268.899 26.1802 269.076 26.1C269.251 26.0197 269.472 25.9796 269.741 25.9796C269.949 25.9796 270.173 26.003 270.422 26.0465L270.314 26.625C270.163 26.6016 270.022 26.5882 269.888 26.5882C269.674 26.5882 269.516 26.6317 269.425 26.7153C269.331 26.7989 269.284 26.9594 269.284 27.1934V27.5512H270.123V28.0696H269.284V31.4603H268.56H268.556Z" fill="#656464"/>
<path d="M273.539 30.9787C273.297 31.1659 273.042 31.3097 272.78 31.4067C272.519 31.5037 272.247 31.5505 271.965 31.5505C271.519 31.5505 271.163 31.4502 270.898 31.2495C270.633 31.0489 270.499 30.778 270.499 30.4336C270.499 30.2062 270.563 30.0056 270.687 29.8317C270.811 29.6578 270.982 29.5207 271.2 29.4238C271.418 29.3268 271.744 29.2532 272.183 29.2064C272.774 29.1429 273.206 29.0693 273.482 28.9824V28.8118C273.485 28.541 273.421 28.3537 273.294 28.2434C273.112 28.0862 272.837 28.0059 272.465 28.0059C272.129 28.0059 271.878 28.0594 271.71 28.1631C271.542 28.2668 271.422 28.4674 271.341 28.755L270.616 28.658C270.717 28.24 270.925 27.9391 271.234 27.7485C271.542 27.5579 271.989 27.4642 272.566 27.4642C273.015 27.4642 273.367 27.5278 273.622 27.6548C273.877 27.7819 274.038 27.9391 274.106 28.123C274.173 28.3102 274.206 28.5811 274.206 28.9389V29.8217C274.206 30.4403 274.223 30.8315 274.253 30.992C274.283 31.1526 274.347 31.3097 274.441 31.4602H273.686C273.609 31.3264 273.559 31.1659 273.535 30.9787H273.539ZM273.482 29.4973C273.216 29.5943 272.821 29.6779 272.294 29.7448C271.989 29.7849 271.774 29.8284 271.653 29.8785C271.532 29.9287 271.438 29.9989 271.371 30.0925C271.304 30.1862 271.271 30.2898 271.271 30.4136C271.271 30.6008 271.348 30.7513 271.502 30.8616C271.656 30.9753 271.871 31.0288 272.143 31.0288C272.415 31.0288 272.639 30.9787 272.851 30.8784C273.062 30.778 273.22 30.6443 273.327 30.4737C273.431 30.3065 273.485 30.0591 273.485 29.7381V29.494L273.482 29.4973Z" fill="#656464"/>
<path d="M275.444 31.4602V27.5512H276.102V28.1397C276.27 27.8655 276.424 27.6816 276.561 27.5947C276.702 27.5044 276.857 27.4609 277.031 27.4609C277.273 27.4609 277.521 27.5312 277.776 27.6716L277.528 28.2869C277.347 28.1933 277.172 28.1431 277.001 28.1431C276.847 28.1431 276.706 28.1832 276.578 28.2635C276.451 28.3437 276.36 28.4574 276.306 28.6012C276.216 28.8553 276.169 29.1229 276.169 29.4071V31.4536H275.444V31.4602Z" fill="#656464"/>
<path d="M281.222 30.2063L281.97 30.2899C281.846 30.7079 281.621 31.0222 281.295 31.2329C280.97 31.4469 280.567 31.5505 280.084 31.5505C279.477 31.5505 278.987 31.3766 278.611 31.0322C278.236 30.6878 278.048 30.1896 278.048 29.5375C278.048 28.8854 278.236 28.3471 278.615 27.9926C278.994 27.6382 279.474 27.4609 280.054 27.4609C280.634 27.4609 281.071 27.6348 281.443 27.9859C281.812 28.337 282 28.842 282 29.5041V29.6813H278.796C278.826 30.1227 278.96 30.4537 279.205 30.6778C279.447 30.9018 279.742 31.0122 280.091 31.0122C280.634 31.0122 281.014 30.7446 281.228 30.2063H281.222ZM278.836 29.1396H281.228C281.195 28.7985 281.097 28.541 280.936 28.3738C280.702 28.1297 280.406 28.006 280.044 28.006C279.719 28.006 279.44 28.1097 279.212 28.3136C278.984 28.5176 278.856 28.7952 278.833 29.1429L278.836 29.1396Z" fill="#656464"/>
<path d="M176.017 11.7279C176.813 12.0724 177.208 12.273 177.208 12.3332C177.208 12.4101 177.175 12.4469 177.104 12.4469C176.957 12.4636 176.849 12.5104 176.792 12.584C176.494 13.1324 176.195 13.5938 175.897 13.9717V20.1579C175.897 20.2683 175.816 20.3218 175.658 20.3218H175.065C174.947 20.3218 174.887 20.2683 174.887 20.1579V15.0317C174.628 15.2658 174.29 15.5433 173.874 15.8643C173.776 15.8643 173.676 15.8276 173.575 15.7506C173.444 15.657 173.3 15.56 173.142 15.4597C173.072 15.4163 173.038 15.3661 173.038 15.3093C173.387 15.0417 173.733 14.7508 174.082 14.4398C174.538 14.0453 174.934 13.5972 175.273 13.1023C175.568 12.6743 175.796 12.2462 175.957 11.8283C175.967 11.7614 175.987 11.7279 176.017 11.7279ZM175.96 8.5947C176.756 8.93912 177.151 9.1431 177.151 9.19995C177.151 9.27686 177.118 9.31364 177.047 9.31364C176.896 9.33036 176.792 9.38052 176.735 9.46412C176.319 10.0861 175.907 10.5576 175.497 10.8786C175.279 11.0792 174.897 11.3635 174.35 11.7246C174.239 11.7246 174.145 11.6912 174.068 11.6243C173.927 11.5139 173.78 11.4136 173.622 11.32C173.551 11.2765 173.518 11.233 173.518 11.1795C173.806 10.9789 174.095 10.7716 174.384 10.5609C174.749 10.2767 175.068 9.95567 175.336 9.60122C175.585 9.29023 175.773 8.98594 175.903 8.69167C175.913 8.6248 175.934 8.59136 175.964 8.59136L175.96 8.5947ZM181.506 17.2353V18.2419H183.295C183.375 18.2419 183.412 18.292 183.412 18.3957V18.8036C183.412 18.9407 183.372 19.0076 183.295 19.0076H181.506V20.1679C181.506 20.2783 181.432 20.3318 181.285 20.3318H180.678C180.56 20.3318 180.5 20.2783 180.5 20.1679V19.0076H176.625C176.544 19.0076 176.507 18.9407 176.507 18.8036V18.3957C176.507 18.2954 176.548 18.2419 176.625 18.2419H177.638V16.6234C177.638 16.5298 177.698 16.483 177.816 16.483H180.496V15.764C180.496 15.6971 180.557 15.6637 180.674 15.6637C181.386 15.6637 181.745 15.7139 181.745 15.8142C181.745 15.9245 181.704 15.9814 181.624 15.9914C181.543 15.9981 181.503 16.075 181.503 16.2188V16.483H183.053C183.144 16.483 183.187 16.5298 183.187 16.6234V17.0447C183.187 17.1718 183.144 17.2353 183.053 17.2353H181.503H181.506ZM177.692 9.70153H179.272C179.352 9.3638 179.419 9.01269 179.48 8.64152C179.51 8.57464 179.57 8.5412 179.658 8.5412L180.476 8.71843C180.607 8.74518 180.671 8.80537 180.671 8.90903C180.671 9.02607 180.607 9.08625 180.476 9.08625C180.396 9.11301 180.342 9.16651 180.312 9.25011C180.282 9.41061 180.258 9.56109 180.238 9.70488H182.338C182.496 9.70488 182.577 9.75503 182.577 9.85535V11.5741H183.053C183.144 11.5741 183.187 11.6243 183.187 11.7279V12.1493C183.187 12.2429 183.144 12.2897 183.053 12.2897H177.329C177.249 12.2897 177.208 12.2429 177.208 12.1493V11.7279C177.208 11.6276 177.249 11.5741 177.329 11.5741H178.879C178.96 11.223 179.044 10.8351 179.134 10.4171H177.688C177.608 10.4171 177.571 10.367 177.571 10.2633V9.85535C177.571 9.75503 177.611 9.70153 177.688 9.70153H177.692ZM177.99 13.0856H182.52C182.677 13.0856 182.758 13.1391 182.758 13.2494V15.2624C182.758 15.3728 182.677 15.4263 182.52 15.4263H177.99C177.833 15.4263 177.752 15.3728 177.752 15.2624V13.2494C177.752 13.1391 177.833 13.0856 177.99 13.0856ZM178.644 17.2353V18.2419H180.496V17.2353H178.644ZM181.748 14.704V13.8145H178.759V14.704H181.748ZM179.825 11.5741H181.57V10.4171H180.094C180.003 10.8351 179.916 11.223 179.825 11.5741ZM183.539 12.2496H187.29C187.411 12.2496 187.468 12.3131 187.468 12.4402V12.8481C187.468 12.9852 187.408 13.0521 187.29 13.0521H186.217V19.5159C186.217 20.1211 185.643 20.4254 184.492 20.4254H184.016C183.955 20.4254 183.925 20.3485 183.925 20.198C183.915 20.0208 183.845 19.8101 183.717 19.566V19.5159C183.966 19.5828 184.204 19.6162 184.432 19.6162C184.949 19.6162 185.207 19.4691 185.207 19.1748V13.0521H183.536C183.415 13.0521 183.358 12.9852 183.358 12.8481V12.4402C183.358 12.3131 183.419 12.2496 183.536 12.2496H183.539ZM184.127 9.52765H186.868C186.988 9.52765 187.045 9.59118 187.045 9.71825V10.1262C187.045 10.2633 186.985 10.3302 186.868 10.3302H184.127C184.006 10.3302 183.949 10.2633 183.949 10.1262V9.71825C183.949 9.59118 184.009 9.52765 184.127 9.52765Z" fill="#656464"/>
<path d="M199.033 8.91903L200.12 9.23335C200.231 9.30023 200.284 9.36042 200.284 9.41058C200.284 9.52093 200.224 9.58781 200.107 9.61121C199.986 9.61121 199.912 9.6714 199.882 9.78844C199.704 10.3268 199.543 10.7782 199.405 11.1394H203.026V8.85549C203.026 8.75518 203.106 8.70502 203.264 8.70502C204.019 8.70502 204.394 8.75518 204.394 8.85549C204.394 8.97253 204.344 9.03941 204.247 9.05613C204.146 9.06281 204.099 9.14976 204.099 9.31026V11.1394H209.105C209.226 11.1394 209.283 11.1862 209.283 11.2798V11.7881C209.283 11.9252 209.222 11.9921 209.105 11.9921H204.099V14.8678H208.39C208.508 14.8678 208.568 14.9314 208.568 15.0584V15.4798C208.568 15.6068 208.508 15.6704 208.39 15.6704H204.099V19.1079H209.823C209.944 19.1079 210.001 19.1614 210.001 19.2717V19.7733C210.001 19.9004 209.94 19.9606 209.823 19.9606H196.591C196.47 19.9606 196.413 19.8971 196.413 19.7733V19.2717C196.413 19.1614 196.473 19.1079 196.591 19.1079H203.029V15.6704H198.379C198.258 15.6704 198.201 15.6068 198.201 15.4798V15.0584C198.201 14.9314 198.261 14.8678 198.379 14.8678H203.029V11.9921H199.02C198.812 12.4034 198.594 12.7946 198.362 13.1658C198.094 13.5537 197.802 13.9014 197.483 14.2124C197.352 14.2124 197.238 14.1957 197.141 14.1623C196.933 14.0854 196.725 14.0185 196.517 13.9616C196.446 13.9282 196.413 13.8981 196.413 13.8747C196.413 13.8145 196.433 13.7744 196.473 13.7476C196.97 13.2862 197.406 12.7177 197.785 12.0422C198.013 11.651 198.211 11.2397 198.382 10.7983C198.57 10.3368 198.751 9.74831 198.919 9.02938C198.949 8.95247 198.989 8.91568 199.04 8.91568L199.033 8.91903Z" fill="#656464"/>
<path d="M219.895 13.4968L220.982 13.7108C221.092 13.7543 221.146 13.8045 221.146 13.8613C221.146 13.9616 221.103 14.0185 221.012 14.0252C220.864 14.0753 220.767 14.2191 220.73 14.4532C220.73 15.9947 220.687 17.0581 220.596 17.6466C220.485 18.2117 220.371 18.7133 220.254 19.148C220.254 19.2249 220.193 19.2617 220.076 19.2617C219.479 19.1012 219.183 18.9975 219.183 18.9474C219.412 18.2652 219.556 17.7101 219.616 17.2821C219.707 16.4662 219.761 15.2457 219.781 13.6206C219.781 13.537 219.821 13.4935 219.898 13.4935L219.895 13.4968ZM219.361 11.7246H224.605C224.726 11.7246 224.783 11.7914 224.783 11.9252V12.3265C224.783 12.4602 224.723 12.5271 224.605 12.5271H222.639V20.1545C222.639 20.2649 222.559 20.3184 222.401 20.3184H221.804C221.646 20.3184 221.566 20.2649 221.566 20.1545V12.5271H219.361C219.241 12.5271 219.183 12.4602 219.183 12.3265V11.9252C219.183 11.7914 219.244 11.7246 219.361 11.7246ZM220.073 9.20326H223.948C224.068 9.20326 224.125 9.27014 224.125 9.40389V9.80516C224.125 9.94895 224.065 10.0192 223.948 10.0192H220.073C219.955 10.0192 219.895 9.94895 219.895 9.80516V9.40389C219.895 9.27014 219.955 9.20326 220.073 9.20326ZM223.709 13.5436H224.246C224.404 13.5436 224.484 13.6139 224.484 13.7577C224.364 14.2392 224.307 14.704 224.307 15.1587C224.307 16.406 224.484 17.553 224.843 18.6063C224.843 18.6665 224.793 18.7066 224.692 18.7334C224.176 18.7768 223.887 18.7969 223.827 18.7969L223.736 18.6063C223.558 17.048 223.468 15.4329 223.468 13.7577C223.468 13.6139 223.548 13.5436 223.706 13.5436H223.709ZM225.494 14.6505H232.59C232.748 14.6505 232.828 14.7006 232.828 14.8009V20.1545C232.828 20.2649 232.748 20.3184 232.59 20.3184H231.993C231.835 20.3184 231.755 20.2649 231.755 20.1545V19.6496H226.326V20.1545C226.326 20.2649 226.246 20.3184 226.088 20.3184H225.491C225.333 20.3184 225.253 20.2649 225.253 20.1545V14.8611C225.253 14.7174 225.333 14.6471 225.491 14.6471L225.494 14.6505ZM225.494 9.04944H232.708C232.828 9.04944 232.885 9.11632 232.885 9.25007V9.65134C232.885 9.7851 232.825 9.85198 232.708 9.85198H225.494C225.374 9.85198 225.317 9.7851 225.317 9.65134V9.25007C225.317 9.11632 225.377 9.04944 225.494 9.04944ZM226.092 10.718H232.05C232.208 10.718 232.288 10.7682 232.288 10.8685V13.6339C232.288 13.7409 232.208 13.7978 232.05 13.7978H226.092C225.934 13.7978 225.853 13.7443 225.853 13.6339V10.8685C225.853 10.7682 225.934 10.718 226.092 10.718ZM226.326 16.7237H228.534V15.463H226.326V16.7237ZM226.326 18.8504H228.534V17.5396H226.326V18.8504ZM231.218 12.9819V11.5172H226.927V12.9819H231.218ZM229.608 15.463V16.7237H231.751V15.463H229.608ZM229.608 18.8471H231.751V17.5363H229.608V18.8471Z" fill="#656464"/>
<path d="M248.869 9.5209C248.809 9.5209 248.725 9.53428 248.614 9.55769C248.198 9.70147 247.695 9.83189 247.108 9.94892C246.997 9.98236 246.889 10.0091 246.779 10.0258V12.2863H249.641C249.758 12.2863 249.818 12.3532 249.818 12.4869V12.8882C249.818 13.022 249.758 13.0888 249.641 13.0888H246.943C247.252 13.6372 247.534 14.0753 247.792 14.403C248.131 14.8477 248.701 15.3627 249.506 15.9445C249.597 15.978 249.641 16.0214 249.641 16.0716C249.641 16.105 249.607 16.1418 249.537 16.1853C249.426 16.3023 249.278 16.4327 249.09 16.5765C249.03 16.6434 248.976 16.6769 248.926 16.6769C248.866 16.6769 248.778 16.6501 248.658 16.5999C248.111 16.1619 247.628 15.6636 247.212 15.1086C247.061 14.9079 246.92 14.6973 246.779 14.4766V20.2214C246.779 20.315 246.698 20.3618 246.541 20.3618H245.943C245.786 20.3618 245.705 20.315 245.705 20.2214V14.8678C245.645 14.9614 245.591 15.045 245.541 15.1186C245.192 15.6235 244.816 16.0984 244.407 16.5464C243.95 17.0079 243.487 17.4058 243.021 17.7335C242.904 17.7335 242.813 17.7068 242.753 17.6566C242.565 17.4961 242.37 17.349 242.172 17.2152C242.142 17.155 242.129 17.1149 242.129 17.0882C242.565 16.8106 242.927 16.5431 243.216 16.2823C243.622 15.9378 244.051 15.473 244.497 14.8946C244.766 14.5334 245.131 13.9315 245.601 13.0888H242.367C242.246 13.0888 242.189 13.022 242.189 12.8882V12.4869C242.189 12.3532 242.249 12.2863 242.367 12.2863H245.705V10.2031C245.527 10.2298 245.353 10.2499 245.185 10.2666C244.481 10.3335 243.84 10.3669 243.263 10.3669C243.095 10.3669 242.984 10.3067 242.934 10.1897C242.803 10.0292 242.655 9.85195 242.488 9.658C242.488 9.56437 242.548 9.5209 242.665 9.5209H243.561C244.276 9.5209 244.897 9.48412 245.423 9.40721C245.9 9.37377 246.373 9.29686 246.839 9.17983C247.386 9.06279 247.849 8.89894 248.225 8.68827C248.275 8.66487 248.309 8.65149 248.329 8.65149C248.45 8.65149 248.533 8.67155 248.584 8.71502C249.171 9.14304 249.463 9.4139 249.463 9.52425C249.463 9.61788 249.402 9.66135 249.285 9.66135L248.869 9.52425V9.5209ZM251.07 10.2131C251.825 10.2131 252.204 10.2632 252.204 10.3636C252.204 10.4806 252.154 10.5508 252.056 10.5642C251.959 10.5742 251.909 10.6578 251.909 10.8183V17.3323C251.909 17.4326 251.828 17.4827 251.67 17.4827H251.073C250.915 17.4827 250.835 17.4326 250.835 17.3323V10.3636C250.835 10.2632 250.915 10.2131 251.073 10.2131H251.07ZM254.167 8.79862L255.468 8.93907C255.606 8.98922 255.676 9.02601 255.676 9.05276C255.676 9.14639 255.602 9.18986 255.452 9.18986C255.233 9.26677 255.123 9.48747 255.123 9.85864V19.3018C255.123 19.984 254.566 20.325 253.449 20.325H252.375C252.294 20.325 252.254 20.2415 252.254 20.0709C252.214 19.9037 252.113 19.6964 251.956 19.4523C251.956 19.352 251.996 19.3018 252.073 19.3018C252.539 19.4021 252.959 19.4523 253.324 19.4523C253.761 19.4523 253.979 19.3018 253.979 18.9975V9.80513C253.979 9.52759 253.969 9.31693 253.948 9.17314C253.928 9.06279 253.918 8.97585 253.918 8.90897C253.918 8.83206 253.999 8.79528 254.156 8.79528L254.167 8.79862Z" fill="#656464"/>
<path d="M265.081 13.8646H272.844C272.955 13.8646 273.008 13.9281 273.008 14.0552V14.4631C273.008 14.6002 272.955 14.6671 272.844 14.6671H265.081C264.963 14.6671 264.903 14.6002 264.903 14.4631V14.0552C264.903 13.9281 264.963 13.8646 265.081 13.8646ZM268.711 8.54443C269.466 8.54443 269.845 8.59459 269.845 8.69491C269.845 8.81195 269.794 8.87548 269.697 8.88551C269.6 8.90223 269.549 8.98917 269.549 9.14968V10.1595H272.472C272.589 10.1595 272.649 10.2264 272.649 10.3602V10.7614C272.649 10.8952 272.589 10.9621 272.472 10.9621H265.379C265.268 10.9621 265.215 10.8952 265.215 10.7614V10.3602C265.215 10.2264 265.268 10.1595 265.379 10.1595H268.479V8.69491C268.479 8.59459 268.56 8.54443 268.717 8.54443H268.711ZM266.03 15.6703H271.76C271.918 15.6703 271.999 15.7204 271.999 15.8208V20.1578C271.999 20.2681 271.918 20.3217 271.76 20.3217H271.163C271.016 20.3217 270.938 20.2681 270.938 20.1578V19.5526H266.865V20.1578C266.865 20.2681 266.785 20.3217 266.627 20.3217H266.03C265.872 20.3217 265.792 20.2681 265.792 20.1578V15.8709C265.792 15.7372 265.872 15.6703 266.03 15.6703ZM266.99 11.2229C267.248 11.6609 267.453 12.0656 267.6 12.4367C267.768 12.7644 267.902 13.1189 268.003 13.4968C268.003 13.5302 267.664 13.6171 266.99 13.7609C266.949 13.5168 266.865 13.2226 266.735 12.8781C266.587 12.4835 266.392 12.0856 266.154 11.691C266.154 11.6141 266.433 11.4603 266.99 11.2229ZM266.865 18.75H270.938V16.4862H266.865V18.75ZM270.938 11.136L271.834 11.4403C271.982 11.4904 272.059 11.5573 272.059 11.6409C272.059 11.7011 272.015 11.7412 271.925 11.768C271.824 11.768 271.76 11.8181 271.73 11.9184C271.432 12.6507 271.133 13.2159 270.834 13.6104C270.774 13.7108 270.724 13.7609 270.687 13.7609C270.616 13.7609 270.532 13.7308 270.432 13.674C270.224 13.5904 270.029 13.5202 269.851 13.46C269.771 13.4366 269.731 13.4132 269.731 13.3964C269.731 13.3697 269.744 13.3429 269.774 13.3095C270.043 12.9484 270.247 12.6273 270.385 12.3498C270.583 11.9953 270.727 11.6442 270.818 11.2898C270.848 11.1895 270.888 11.1393 270.938 11.1393V11.136ZM274.756 9.86862V20.1712C274.756 20.2815 274.673 20.335 274.505 20.335H273.911C273.753 20.335 273.673 20.2815 273.673 20.1712V9.25668C273.673 9.15637 273.753 9.10287 273.911 9.10287H278.081C278.259 9.10287 278.39 9.12962 278.467 9.17977C278.725 9.34028 278.856 9.45732 278.856 9.5242L276.726 13.149C276.686 13.2426 276.665 13.3095 276.665 13.3496C276.665 13.4098 276.699 13.4767 276.769 13.5503C277.276 13.995 277.702 14.5367 278.051 15.1654C278.4 15.8208 278.571 16.4795 278.571 17.1349C278.571 17.5797 278.467 17.9709 278.259 18.3086C278.041 18.6631 277.722 18.9072 277.306 19.0409C277.038 19.1914 276.582 19.2683 275.934 19.2683C275.676 19.2683 275.545 19.1914 275.545 19.0409C275.485 18.73 275.397 18.4992 275.276 18.3488C275.276 18.2484 275.337 18.1983 275.454 18.1983L276.169 18.2986C276.645 18.2986 276.984 18.1816 277.182 17.9441C277.38 17.7435 277.481 17.4726 277.481 17.1349C277.481 16.6634 277.34 16.1384 277.065 15.5566C276.716 14.9079 276.206 14.2759 275.528 13.6639C275.438 13.6138 275.394 13.5569 275.394 13.5001C275.394 13.46 275.414 13.3897 275.454 13.2995L277.602 9.86527H274.756V9.86862Z" fill="#656464"/>
</g>
<defs>
<clipPath id="clip0_201_41">
<rect width="282" height="40" fill="white"/>
</clipPath>
</defs>
</svg>
