<svg width="41" height="40" viewBox="0 0 41 40" fill="none" xmlns="http://www.w3.org/2000/svg">
<path d="M40.2423 20.0141V28.0014H40.2317C33.5742 28.0014 28.1618 33.3802 28.1618 39.9965H20.1212C20.1212 28.9541 29.1205 20.0106 40.2317 20.0106H40.2423V20.0141Z" fill="#E1690D"/>
<path d="M20.1212 0V0.0175778H20.1105C9.01349 0.0175778 0.0247623 8.93654 0 19.9578V20.0176C0 29.7838 7.0325 37.9047 16.3431 39.6449V31.4185C11.5216 29.8435 8.04068 25.3261 8.04068 20.0176V20C8.04068 13.3837 13.453 8.00492 20.1105 8.00492H20.1212V7.98734C25.4734 7.98734 30.0049 11.4572 31.5897 16.2489H39.8815C38.1198 6.99947 29.9483 0 20.1212 0Z" fill="#EC6C00"/>
<path d="M20.1212 14.0306C16.7959 14.0306 14.1004 16.7094 14.1004 20.0141C14.1004 23.3187 16.7959 25.9975 20.1212 25.9975C23.4464 25.9975 26.1419 23.3187 26.1419 20.0141C26.1419 16.7094 23.4464 14.0306 20.1212 14.0306Z" fill="#E1690D"/>
<path d="M39.2448 24.1976C31.0095 24.1976 24.3308 30.8349 24.3308 39.0191C24.3308 39.3496 24.3591 39.673 24.3803 40H28.1583C28.1583 33.3837 33.5707 28.0049 40.2282 28.0049H40.2388V24.2503C39.9063 24.2292 39.5773 24.2011 39.2412 24.2011L39.2448 24.1976Z" fill="#D2A258"/>
</svg>
