<svg width="206" height="111" viewBox="0 0 206 111" fill="none" xmlns="http://www.w3.org/2000/svg">
<rect x="2" y="1.5" width="202" height="78" rx="8.5" fill="white" stroke="#CADEDF" stroke-width="3"/>
<rect x="33" y="87.5" width="155" height="7" rx="3.5" fill="white" stroke="#CADEDF" stroke-width="3"/>
<rect x="9" y="102.5" width="59" height="7" rx="3.5" fill="white" stroke="#CADEDF" stroke-width="3"/>
<path d="M35.6449 43.3862H34.2633L31.5 62.7178L39.7898 58.5753L47.3888 61.9446L54.9877 58.5753L63.2775 62.7178L60.5143 43.3862H59.1326" stroke="#CADEDF" stroke-width="2" stroke-linecap="round" stroke-linejoin="round"/>
<path d="M56.8253 40.4311C56.8253 47.2385 47.3888 56.7248 47.3888 56.7248C47.3888 56.7248 37.9384 47.28 37.9522 40.4311C37.9522 35.2253 42.18 31 47.3888 31C52.5975 31 56.8253 35.2253 56.8253 40.4311Z" stroke="#CADEDF" stroke-width="2" stroke-miterlimit="10"/>
<path d="M51.6718 40.1133C51.6718 42.4745 49.7513 44.3939 47.3887 44.3939C45.0262 44.3939 43.1057 42.4745 43.1057 40.1133C43.1057 37.7521 45.0262 35.8328 47.3887 35.8328C49.7513 35.8328 51.6718 37.7521 51.6718 40.1133Z" stroke="#CADEDF" stroke-width="2" stroke-miterlimit="10"/>
<path d="M101.742 41.3715C101.742 41.3715 101.648 41.482 101.6 41.5451C101.142 42.0817 101.363 42.8707 101.679 43.7386C102.658 46.4685 105.374 49.1827 107.806 50.4767C108.611 50.9028 109.479 50.9659 110 50.4767C110.063 50.4294 110.111 50.3663 110.174 50.3189C110.695 49.8455 111.484 49.4826 112.211 49.7824C112.653 49.9718 113.048 50.1611 113.695 50.4136C114.627 50.7923 115.29 51.7549 115.148 52.6544C114.974 53.6959 114.358 54.7847 114.042 55.3528C113.679 56.0156 112.621 56.2207 111.516 55.8893C102.642 53.2225 98.5687 47.8099 96.1214 40.188C95.774 39.0992 95.9319 38.0419 96.5793 37.6474C97.1319 37.316 98.0477 36.5112 99.2319 36.4639C100.163 36.4323 101 36.8268 101.553 37.8683C101.79 38.2944 101.916 38.7836 102.121 39.2254C102.437 39.9513 102.579 40.2332 102.121 40.7698L101.742 41.3715Z" stroke="#008088" stroke-width="2" stroke-miterlimit="10"/>
<path d="M95.4109 61.7538L86.5057 64.2944L89.0478 55.3944C87.4372 52.696 86.5057 49.5242 86.5057 46.1472C86.5057 36.1268 94.6372 28 104.663 28C114.69 28 122.821 36.1268 122.821 46.1472C122.821 56.1676 114.69 64.2944 104.663 64.2944C101.285 64.2944 98.1109 63.3634 95.4109 61.7538Z" stroke="#008088" stroke-width="2" stroke-linecap="round" stroke-linejoin="round"/>
<path d="M173.493 36V53.4541C173.493 54.8255 172.37 55.9475 170.998 55.9475H148.544C147.172 55.9475 146.049 54.8255 146.049 53.4541V36" stroke="#CADEDF" stroke-width="2" stroke-linecap="round" stroke-linejoin="round"/>
<path d="M173.493 36L161.243 46.1483C160.37 46.7841 159.185 46.7841 158.312 46.1483L146.062 36H173.506H173.493Z" stroke="#CADEDF" stroke-width="2" stroke-linecap="round" stroke-linejoin="round"/>
<path d="M146.049 36H173.493" stroke="#CADEDF" stroke-width="2" stroke-linecap="round" stroke-linejoin="round"/>
<path d="M2 10C2 5.30558 5.80558 1.5 10.5 1.5H195.5C200.194 1.5 204 5.30558 204 10V13.5H2V10Z" fill="white" stroke="#CADEDF" stroke-width="3"/>
</svg>
