<svg width="130" height="130" viewBox="0 0 130 130" fill="none" xmlns="http://www.w3.org/2000/svg">
<circle cx="65" cy="65" r="63.5" fill="white" stroke="#CADEDF" stroke-width="3" stroke-dasharray="6 6"/>
<ellipse cx="65.5" cy="80.5" rx="9.5" ry="1.5" fill="#CADEDF"/>
<path d="M65 49C57.8205 49 52 54.6552 52 61.6307C52 67.05 59.846 75.7129 63.3473 79.3085C64.245 80.2305 65.755 80.2305 66.6527 79.3085C70.154 75.7129 78 67.05 78 61.6307C78.0005 54.6552 72.18 49 65 49ZM65 64.6623C62.6666 64.6623 60.775 62.8244 60.775 60.5573C60.775 58.2901 62.6666 56.4523 65 56.4523C67.3334 56.4523 69.225 58.2901 69.225 60.5573C69.225 62.8244 67.3334 64.6623 65 64.6623Z" fill="#008088"/>
</svg>
