<svg xmlns="http://www.w3.org/2000/svg" width="192" height="118" viewBox="0 0 192 118" fill="none">
<rect x="2" y="1.5" width="102" height="37" rx="8.5" fill="white" stroke="#CADEDF" stroke-width="3"/>
<rect x="22" y="49.5" width="168" height="37" rx="8.5" fill="white" stroke="#CADEDF" stroke-width="3"/>
<g clip-path="url(#clip0_718_81)">
<path d="M182.178 101.036L181.875 99.9047C181.82 99.7019 181.912 99.3475 182.107 99.0024C182.116 98.9872 182.123 98.9707 182.131 98.955C182.137 98.9435 182.144 98.9326 182.15 98.9211C182.155 98.9114 182.159 98.9012 182.163 98.8917C182.163 98.8908 182.164 98.8892 182.165 98.8882C183.56 95.9184 183.716 92.2217 182.591 88.7406C182.59 88.7356 182.587 88.731 182.585 88.7261C182.584 88.7211 182.583 88.7168 182.582 88.7119L178.019 75.66C178.018 75.6558 178.015 75.6519 178.014 75.6477C178.013 75.6434 178.012 75.6391 178.01 75.6342C177.647 74.6612 176.94 73.8671 176.02 73.3983C175.106 72.9324 174.064 72.8262 173.08 73.1028C172.23 73.3404 171.49 73.8482 170.958 74.5485C170.113 73.8955 169.077 73.587 168.024 73.6798C166.855 73.7833 165.847 74.3606 165.163 75.2142C164.839 74.9476 164.473 74.7287 164.073 74.5676C162.663 73.9997 161.069 74.2512 159.909 75.2242L157.646 66.7806C157.646 66.7806 157.646 66.7806 157.646 66.7799C157.264 65.3483 156.155 64.2185 154.752 63.8313C153.348 63.4437 151.84 63.8475 150.818 64.8854C149.796 65.9225 149.401 67.4552 149.786 68.8861C149.786 68.8861 149.786 68.8861 149.786 68.8868L154.111 85.0285C153.57 85.0966 153.035 85.2043 152.497 85.3532C152.495 85.3536 152.494 85.3537 152.493 85.3541C152.489 85.3552 152.485 85.3564 152.481 85.3573C151.147 85.7292 150.038 86.6672 149.438 87.9294C148.843 89.1813 148.815 90.6521 149.36 91.9633C150.527 94.7711 152.187 97.2971 154.295 99.4719C156.392 101.636 158.839 103.356 161.569 104.585C161.79 104.697 161.973 104.938 162.048 105.216L162.351 106.347C161.874 106.889 161.676 107.655 161.883 108.428L163.186 113.291C163.541 114.616 164.891 115.41 166.195 115.06L183.245 110.492C184.529 110.148 185.284 108.79 184.929 107.465L183.626 102.602C183.419 101.829 182.864 101.264 182.18 101.034L182.178 101.036Z" fill="white"/>
<path d="M182.178 101.036L181.875 99.9047C181.82 99.7019 181.912 99.3475 182.107 99.0024C182.116 98.9872 182.123 98.9707 182.131 98.955C182.137 98.9435 182.144 98.9326 182.15 98.9211C182.155 98.9114 182.159 98.9012 182.163 98.8917C182.163 98.8908 182.164 98.8892 182.165 98.8882C183.56 95.9184 183.716 92.2217 182.591 88.7406C182.59 88.7356 182.587 88.731 182.585 88.7261C182.584 88.7211 182.583 88.7168 182.582 88.7119L178.019 75.66C178.018 75.6558 178.015 75.6519 178.014 75.6477C178.013 75.6434 178.012 75.6391 178.01 75.6342C177.647 74.6612 176.94 73.8671 176.02 73.3983C175.106 72.9324 174.064 72.8262 173.08 73.1028C172.23 73.3404 171.49 73.8482 170.958 74.5485C170.113 73.8955 169.077 73.587 168.024 73.6798C166.855 73.7833 165.847 74.3606 165.163 75.2142C164.839 74.9476 164.473 74.7287 164.073 74.5676C162.663 73.9997 161.069 74.2512 159.909 75.2242L157.646 66.7806C157.646 66.7806 157.646 66.7806 157.646 66.7799C157.264 65.3483 156.155 64.2185 154.752 63.8313C153.348 63.4437 151.84 63.8475 150.818 64.8854C149.796 65.9225 149.401 67.4552 149.786 68.8861C149.786 68.8861 149.786 68.8861 149.786 68.8868L154.111 85.0285C153.57 85.0966 153.035 85.2043 152.497 85.3532C152.495 85.3536 152.494 85.3537 152.493 85.3541C152.489 85.3552 152.485 85.3564 152.481 85.3573C151.147 85.7292 150.038 86.6672 149.438 87.9294C148.843 89.1813 148.815 90.6521 149.36 91.9633C150.527 94.7711 152.187 97.2971 154.295 99.4719C156.392 101.636 158.839 103.356 161.569 104.585C161.79 104.697 161.973 104.938 162.048 105.216L162.351 106.347C161.874 106.889 161.676 107.655 161.883 108.428L163.186 113.291C163.541 114.616 164.891 115.41 166.195 115.06L183.245 110.492C184.529 110.148 185.284 108.79 184.929 107.465L183.626 102.602C183.419 101.829 182.864 101.264 182.18 101.034L182.178 101.036ZM165.558 112.648C165.558 112.648 165.555 112.646 165.554 112.646L164.316 108.026L181.312 103.472L182.551 108.095L165.558 112.648ZM151.624 91.0115C151.353 90.3604 151.364 89.6368 151.654 89.0269C151.949 88.4067 152.494 87.946 153.15 87.7635C153.687 87.6134 154.221 87.5167 154.765 87.4699L155.244 89.2586C155.247 89.2714 155.248 89.284 155.248 89.297C155.244 89.4076 155.212 89.5614 155.083 89.6673C154.558 90.1 154.481 90.8844 154.912 91.4206C155.229 91.8152 155.733 91.9652 156.186 91.8438C156.348 91.8004 156.504 91.7222 156.643 91.6083C157.286 91.0787 157.673 90.2786 157.706 89.4131C157.716 89.1466 157.686 88.881 157.617 88.6235L152.158 68.2511C152.158 68.2511 152.158 68.2511 152.158 68.2504C152.158 68.2504 152.158 68.2504 152.158 68.2497C152.004 67.6775 152.159 67.0666 152.564 66.6555C152.969 66.2445 153.566 66.0843 154.122 66.2379C154.678 66.3915 155.119 66.8429 155.272 67.4154C155.272 67.4154 155.272 67.4154 155.272 67.4161C155.272 67.4161 155.272 67.4161 155.272 67.4168L158.48 79.3882C158.482 79.3953 158.484 79.4022 158.487 79.4098C158.493 79.4318 158.5 79.4534 158.508 79.4748C158.514 79.4929 158.521 79.5109 158.528 79.5288C158.536 79.5501 158.546 79.5704 158.555 79.5907C158.563 79.6083 158.571 79.6259 158.58 79.6426C158.59 79.662 158.601 79.6804 158.611 79.6987C158.621 79.7159 158.631 79.733 158.642 79.7497C158.654 79.7665 158.665 79.7831 158.677 79.7998C158.689 79.8164 158.701 79.833 158.713 79.8494C158.725 79.8643 158.738 79.8791 158.751 79.8939C158.765 79.9092 158.779 79.9252 158.793 79.9405C158.806 79.9544 158.82 79.9673 158.834 79.9803C158.849 79.9945 158.864 80.0088 158.88 80.0221C158.895 80.0349 158.91 80.0468 158.926 80.0585C158.942 80.0709 158.958 80.0833 158.974 80.0949C158.991 80.1064 159.007 80.1172 159.024 80.1278C159.041 80.1387 159.057 80.1486 159.074 80.1585C159.092 80.1689 159.11 80.1778 159.129 80.1871C159.146 80.1955 159.163 80.204 159.18 80.2123C159.2 80.2207 159.219 80.2285 159.238 80.2362C159.256 80.243 159.272 80.2499 159.29 80.2557C159.31 80.2625 159.33 80.2678 159.351 80.2737C159.369 80.2787 159.387 80.2838 159.405 80.288C159.425 80.2925 159.446 80.2962 159.466 80.2998C159.486 80.3029 159.505 80.307 159.524 80.3094C159.543 80.3118 159.563 80.3133 159.583 80.3148C159.604 80.3162 159.624 80.3182 159.646 80.3186C159.664 80.3189 159.684 80.319 159.703 80.3184C159.725 80.318 159.747 80.3173 159.769 80.3152C159.788 80.3139 159.807 80.3112 159.826 80.309C159.848 80.3062 159.87 80.3032 159.892 80.2998C159.899 80.2979 159.906 80.2981 159.914 80.2968C159.927 80.2941 159.939 80.2901 159.952 80.2867C159.965 80.2831 159.978 80.2819 159.992 80.2783C159.999 80.2763 160.007 80.2735 160.014 80.2708C160.035 80.2653 160.054 80.2587 160.074 80.2518C160.093 80.245 160.114 80.238 160.133 80.2299C160.15 80.2229 160.168 80.2143 160.186 80.2066C160.206 80.1974 160.226 80.1883 160.245 80.1777C160.261 80.1697 160.276 80.1604 160.291 80.1518C160.311 80.1404 160.331 80.1282 160.351 80.1153C160.364 80.1064 160.376 80.097 160.389 80.0874C160.41 80.0729 160.429 80.0586 160.447 80.043C160.459 80.0331 160.47 80.0233 160.481 80.0134C160.5 79.997 160.518 79.9807 160.536 79.9631C160.546 79.9526 160.556 79.9416 160.567 79.9304C160.583 79.9123 160.6 79.8942 160.615 79.8757C160.625 79.8638 160.634 79.8507 160.644 79.8383C160.658 79.8193 160.672 79.8011 160.685 79.7816C160.695 79.7676 160.704 79.753 160.713 79.7385C160.724 79.7195 160.736 79.7003 160.747 79.6808C160.755 79.6648 160.763 79.6482 160.772 79.6315C160.781 79.6123 160.79 79.5939 160.798 79.5742C160.806 79.5561 160.813 79.5384 160.82 79.5198C160.827 79.5012 160.833 79.4819 160.84 79.4626C160.846 79.4435 160.852 79.4246 160.857 79.4049C160.862 79.3853 160.867 79.3664 160.871 79.3464C160.876 79.3269 160.879 79.3072 160.882 79.2872C160.886 79.2672 160.889 79.2467 160.891 79.2262C160.893 79.2066 160.895 79.1872 160.896 79.1671C160.898 79.1453 160.899 79.1245 160.899 79.1031C160.9 79.0841 160.899 79.0645 160.899 79.0455C160.898 79.0229 160.898 79.001 160.896 78.9786C160.895 78.9593 160.892 78.9403 160.89 78.9211C160.887 78.899 160.884 78.8763 160.88 78.8538C160.878 78.8467 160.878 78.839 160.877 78.831C160.755 78.2273 160.993 77.5699 161.481 77.1562C161.955 76.7558 162.607 76.651 163.184 76.8833C163.761 77.1156 164.167 77.6467 164.247 78.27C164.248 78.2773 164.25 78.2844 164.251 78.2919C164.254 78.3146 164.258 78.337 164.263 78.3593C164.266 78.3782 164.27 78.3968 164.275 78.4154C164.281 78.4374 164.286 78.4594 164.293 78.4805C164.298 78.4989 164.304 78.517 164.31 78.5351C164.317 78.5552 164.326 78.5751 164.334 78.5949C164.342 78.6133 164.349 78.6312 164.358 78.6494C164.366 78.6676 164.375 78.6856 164.385 78.7036C164.394 78.7217 164.404 78.7395 164.414 78.7574C164.424 78.7745 164.435 78.7905 164.445 78.8068C164.457 78.8242 164.468 78.8417 164.481 78.8581C164.492 78.8732 164.504 78.8884 164.516 78.9033C164.529 78.9195 164.542 78.9359 164.556 78.9512C164.569 78.9653 164.582 78.9792 164.596 78.9931C164.61 79.0075 164.624 79.0226 164.639 79.0361C164.654 79.0496 164.669 79.0624 164.684 79.075C164.699 79.0876 164.714 79.1004 164.73 79.1121C164.746 79.1245 164.763 79.1361 164.78 79.1474C164.795 79.1584 164.811 79.1694 164.827 79.1795C164.845 79.1907 164.863 79.2011 164.881 79.2107C164.898 79.2199 164.914 79.2293 164.931 79.2376C164.95 79.247 164.969 79.2556 164.988 79.2634C165.006 79.2708 165.023 79.2784 165.041 79.2858C165.06 79.2929 165.08 79.2997 165.099 79.3059C165.118 79.3122 165.137 79.3178 165.155 79.3234C165.175 79.3289 165.194 79.3329 165.214 79.3375C165.234 79.342 165.254 79.3464 165.275 79.35C165.294 79.3533 165.313 79.3557 165.332 79.3574C165.354 79.36 165.375 79.3626 165.397 79.3635C165.416 79.3645 165.436 79.3653 165.456 79.3654C165.477 79.3657 165.499 79.3659 165.521 79.3653C165.529 79.3648 165.536 79.3658 165.544 79.3653C165.558 79.3646 165.571 79.362 165.584 79.3614C165.597 79.3602 165.61 79.3606 165.623 79.3586C165.632 79.3576 165.642 79.3559 165.651 79.354C165.663 79.3524 165.674 79.3503 165.685 79.3489C165.716 79.3435 165.748 79.3365 165.779 79.329C165.789 79.3262 165.799 79.3236 165.809 79.321C165.84 79.3125 165.871 79.3029 165.9 79.2918C165.914 79.2867 165.927 79.2801 165.941 79.2749C165.963 79.2659 165.986 79.256 166.008 79.2456C166.022 79.2388 166.035 79.2315 166.048 79.2242C166.068 79.2135 166.089 79.2018 166.109 79.1896C166.122 79.1814 166.135 79.1727 166.148 79.164C166.167 79.1513 166.186 79.1386 166.204 79.1247C166.216 79.1153 166.228 79.1051 166.241 79.095C166.258 79.0813 166.275 79.0668 166.291 79.0518C166.303 79.041 166.315 79.0295 166.326 79.0181C166.342 79.0026 166.357 78.9871 166.371 78.9718C166.383 78.9595 166.394 78.9468 166.405 78.934C166.418 78.9181 166.431 78.9011 166.444 78.8847C166.454 78.8712 166.464 78.8572 166.475 78.843C166.487 78.8262 166.498 78.8087 166.508 78.7906C166.518 78.7759 166.527 78.7614 166.535 78.7462C166.545 78.7275 166.555 78.7089 166.564 78.6897C166.572 78.6747 166.58 78.6596 166.587 78.6441C166.597 78.6233 166.605 78.6013 166.613 78.5793C166.619 78.565 166.625 78.5512 166.63 78.5369C166.642 78.5026 166.652 78.4671 166.661 78.4314C166.661 78.4297 166.662 78.428 166.662 78.4264C166.671 78.3882 166.678 78.3498 166.684 78.3102C166.686 78.2992 166.686 78.2876 166.687 78.2767C166.691 78.2484 166.694 78.2195 166.695 78.1903C166.696 78.1765 166.695 78.162 166.695 78.1476C166.696 78.1216 166.696 78.0958 166.694 78.0688C166.694 78.0635 166.695 78.0581 166.695 78.0528C166.634 77.0769 167.323 76.2471 168.262 76.1642C169.16 76.0848 169.986 76.7329 170.164 77.6279C170.173 77.6961 170.184 77.7646 170.197 77.8326C170.199 77.8397 170.201 77.8468 170.203 77.8546C170.208 77.8777 170.214 77.9004 170.22 77.9223C170.225 77.9408 170.23 77.9585 170.234 77.9763C170.241 77.9981 170.249 78.0195 170.257 78.0409C170.264 78.0588 170.27 78.0761 170.278 78.0938C170.286 78.1136 170.296 78.1331 170.306 78.1525C170.314 78.17 170.322 78.1876 170.332 78.2047C170.342 78.2225 170.353 78.2402 170.363 78.2571C170.374 78.2748 170.385 78.2917 170.396 78.3085C170.407 78.3245 170.419 78.3404 170.43 78.3555C170.443 78.3719 170.456 78.389 170.469 78.4045C170.481 78.4195 170.494 78.4335 170.507 78.4476C170.52 78.4629 170.535 78.478 170.549 78.4931C170.564 78.5068 170.578 78.5198 170.591 78.5328C170.606 78.5463 170.622 78.5596 170.637 78.5729C170.653 78.5855 170.669 78.5973 170.684 78.609C170.7 78.6207 170.716 78.6324 170.733 78.6432C170.75 78.6545 170.767 78.6652 170.785 78.6756C170.801 78.6857 170.817 78.6949 170.834 78.7042C170.852 78.7137 170.871 78.7231 170.89 78.7317C170.907 78.74 170.924 78.7476 170.941 78.7552C170.961 78.763 170.98 78.7708 171 78.7776C171.018 78.7841 171.035 78.7908 171.054 78.7965C171.074 78.8026 171.093 78.8081 171.113 78.8126C171.132 78.8173 171.152 78.8221 171.171 78.8268C171.19 78.8308 171.209 78.8339 171.23 78.8369C171.25 78.8398 171.271 78.8433 171.292 78.8453C171.311 78.847 171.33 78.848 171.349 78.849C171.371 78.85 171.393 78.8509 171.415 78.8512C171.433 78.8515 171.452 78.8502 171.472 78.8496C171.494 78.8482 171.516 78.8475 171.539 78.8446C171.547 78.8439 171.554 78.8442 171.561 78.843C171.584 78.8401 171.605 78.8366 171.627 78.8331C171.63 78.8322 171.634 78.8327 171.638 78.8315C171.64 78.8312 171.64 78.831 171.642 78.8306C171.672 78.8249 171.701 78.8184 171.73 78.8108C171.768 78.8007 171.804 78.7886 171.84 78.7752C171.85 78.7718 171.859 78.7671 171.868 78.763C171.894 78.7524 171.92 78.7424 171.944 78.7306C171.958 78.7238 171.971 78.7158 171.985 78.709C172.004 78.6985 172.024 78.6888 172.042 78.677C172.057 78.6677 172.071 78.6577 172.086 78.6477C172.102 78.6365 172.119 78.626 172.135 78.6142C172.15 78.6033 172.163 78.5914 172.177 78.58C172.192 78.5684 172.206 78.5561 172.22 78.544C172.234 78.5319 172.247 78.5188 172.26 78.5062C172.273 78.4926 172.286 78.48 172.299 78.4667C172.311 78.4535 172.323 78.4398 172.335 78.426C172.347 78.4112 172.36 78.3965 172.372 78.3819C172.382 78.3684 172.393 78.3542 172.402 78.3402C172.414 78.3242 172.425 78.3083 172.436 78.2909C172.445 78.277 172.454 78.2625 172.462 78.2475C172.472 78.2295 172.483 78.2123 172.492 78.1939C172.499 78.179 172.506 78.1641 172.514 78.1493C172.523 78.1301 172.531 78.1119 172.539 78.0924C172.545 78.077 172.551 78.0618 172.557 78.0457C172.564 78.0262 172.571 78.0062 172.577 77.9864C172.581 77.9699 172.587 77.954 172.591 77.9378C172.596 77.9181 172.601 77.8978 172.605 77.8785C172.609 77.8616 172.612 77.8439 172.615 77.8264C172.618 77.8065 172.621 77.7869 172.624 77.7671C172.626 77.7489 172.628 77.7302 172.629 77.7117C172.63 77.6922 172.631 77.673 172.632 77.6531C172.633 77.6338 172.633 77.6148 172.633 77.5951C172.633 77.5753 172.631 77.5552 172.63 77.5357C172.629 77.5163 172.628 77.4976 172.626 77.4784C172.625 77.471 172.625 77.4635 172.624 77.456C172.617 77.4001 172.608 77.344 172.599 77.2887C172.489 76.4811 172.973 75.7237 173.755 75.505C174.561 75.2813 175.419 75.7152 175.712 76.4963L180.261 89.507C181.188 92.3843 181.073 95.4059 179.945 97.8039C179.436 98.7276 179.279 99.6971 179.505 100.539L179.713 101.316L164.632 105.357L164.424 104.58C164.159 103.593 163.508 102.779 162.637 102.346C162.629 102.342 162.622 102.339 162.614 102.336C162.606 102.333 162.6 102.328 162.592 102.325C157.631 100.101 153.737 96.0836 151.629 91.0102L151.624 91.0115Z" fill="#008088"/>
</g>
<rect x="115" y="1.5" width="56" height="37" rx="8.5" fill="white" stroke="#CADEDF" stroke-width="3"/>
<path d="M84.5 19L88.5 23L92.5 19" stroke="#CADEDF" stroke-width="2" stroke-linecap="round"/>
<path d="M154.5 19L158.5 23L162.5 19" stroke="#CADEDF" stroke-width="2" stroke-linecap="round"/>
<defs>
<clipPath id="clip0_718_81">
<rect width="33" height="53" fill="white" transform="translate(142.5 66.541) rotate(-15)"/>
</clipPath>
</defs>
</svg>